<svg width="25" height="25" viewBox="0 0 40 40" fill="none" xmlns="http://www.w3.org/2000/svg">
<path fill-rule="evenodd" clip-rule="evenodd" d="M20 3.33301C23.9782 3.33301 27.7936 4.91336 30.6066 7.72641C33.4196 10.5395 35 14.3548 35 18.333C35 23.4563 32.2067 27.6497 29.2633 30.658C27.7928 32.1448 26.1882 33.4927 24.47 34.6847L23.76 35.168L23.4267 35.3897L22.7983 35.7897L22.2383 36.1313L21.545 36.5347C21.0744 36.8033 20.5419 36.9446 20 36.9446C19.4581 36.9446 18.9256 36.8033 18.455 36.5347L17.7617 36.1313L16.895 35.598L16.575 35.3897L15.8917 34.9347C14.0381 33.6805 12.3115 32.2482 10.7367 30.658C7.79333 27.648 5 23.4563 5 18.333C5 14.3548 6.58035 10.5395 9.3934 7.72641C12.2064 4.91336 16.0218 3.33301 20 3.33301ZM20 6.66634C16.9058 6.66634 13.9383 7.8955 11.7504 10.0834C9.5625 12.2714 8.33333 15.2388 8.33333 18.333C8.33333 22.203 10.4533 25.5997 13.1183 28.3263C14.2642 29.4863 15.5028 30.551 16.8217 31.5097L17.585 32.053C17.8317 32.2252 18.0689 32.3852 18.2967 32.533L18.9467 32.9497L19.5183 33.298L20 33.5797L20.7583 33.1313L21.37 32.748C21.6956 32.5413 22.0439 32.3097 22.415 32.053L23.1783 31.5097C24.4972 30.551 25.7358 29.4863 26.8817 28.3263C29.5467 25.6013 31.6667 22.203 31.6667 18.333C31.6667 15.2388 30.4375 12.2714 28.2496 10.0834C26.0617 7.8955 23.0942 6.66634 20 6.66634ZM20 11.6663C21.7681 11.6663 23.4638 12.3687 24.714 13.619C25.9643 14.8692 26.6667 16.5649 26.6667 18.333C26.6667 20.1011 25.9643 21.7968 24.714 23.0471C23.4638 24.2973 21.7681 24.9997 20 24.9997C18.2319 24.9997 16.5362 24.2973 15.286 23.0471C14.0357 21.7968 13.3333 20.1011 13.3333 18.333C13.3333 16.5649 14.0357 14.8692 15.286 13.619C16.5362 12.3687 18.2319 11.6663 20 11.6663ZM20 14.9997C19.1159 14.9997 18.2681 15.3509 17.643 15.976C17.0179 16.6011 16.6667 17.449 16.6667 18.333C16.6667 19.2171 17.0179 20.0649 17.643 20.69C18.2681 21.3152 19.1159 21.6663 20 21.6663C20.8841 21.6663 21.7319 21.3152 22.357 20.69C22.9821 20.0649 23.3333 19.2171 23.3333 18.333C23.3333 17.449 22.9821 16.6011 22.357 15.976C21.7319 15.3509 20.8841 14.9997 20 14.9997Z" fill="#FFC702"/>
</svg>
