<svg width="35" height="35" viewBox="0 0 35 35" fill="none" xmlns="http://www.w3.org/2000/svg">
<path d="M7.29175 13.125C7.29175 10.4175 8.36727 7.82101 10.2817 5.90658C12.1961 3.99214 14.7927 2.91663 17.5001 2.91663C20.2075 2.91663 22.804 3.99214 24.7185 5.90658C26.6329 7.82101 27.7084 10.4175 27.7084 13.125V14.6343C30.1817 14.9887 32.0834 17.1164 32.0834 19.6875V20.052C32.0834 22.6406 29.8507 24.9097 27.2242 24.7887C26.1451 27.8804 23.4005 29.9643 20.4386 30.4923C19.7532 30.7431 18.9424 30.625 18.2292 30.625C17.6491 30.625 17.0927 30.3945 16.6825 29.9843C16.2722 29.574 16.0417 29.0176 16.0417 28.4375C16.0417 27.8573 16.2722 27.3009 16.6825 26.8907C17.0927 26.4804 17.6491 26.25 18.2292 26.25C19.3857 26.25 20.6661 26.0823 21.4478 27.1381C23.3378 26.2383 24.7917 24.3381 24.7917 21.875V13.125C24.7917 11.1911 24.0235 9.33643 22.6561 7.96897C21.2886 6.60152 19.434 5.83329 17.5001 5.83329C15.5662 5.83329 13.7115 6.60152 12.3441 7.96897C10.9766 9.33643 10.2084 11.1911 10.2084 13.125V22.2395C10.2084 22.9164 9.93953 23.5655 9.46093 24.0441C8.98232 24.5227 8.33319 24.7916 7.65633 24.7916C6.39932 24.7916 5.19378 24.2923 4.30494 23.4034C3.4161 22.5146 2.91675 21.3091 2.91675 20.052V19.6875C2.91643 18.4599 3.35856 17.2733 4.1621 16.3452C4.96563 15.4171 6.07674 14.8097 7.29175 14.6343V13.125Z" fill="#00295D"/>
</svg>
