<svg width="35" height="35" viewBox="0 0 35 35" fill="none" xmlns="http://www.w3.org/2000/svg">
<path d="M4.375 17.5H17.5V19.6875H4.375V17.5ZM2.1875 12.0312H13.125V14.2188H2.1875V12.0312Z" fill="#00295D"/>
<path d="M32.7239 18.1628L29.4427 10.5066C29.3584 10.3099 29.2182 10.1422 29.0395 10.0244C28.8609 9.90658 28.6515 9.84377 28.4375 9.84375H25.1563V7.65625C25.1563 7.36617 25.041 7.08797 24.8359 6.88285C24.6308 6.67773 24.3526 6.5625 24.0625 6.5625H6.56253V8.75H22.9688V22.4831C22.4707 22.7729 22.0348 23.1582 21.686 23.617C21.3373 24.0757 21.0826 24.5988 20.9366 25.1562H14.0635C13.7973 24.1252 13.1642 23.2267 12.2828 22.629C11.4015 22.0314 10.3325 21.7757 9.27612 21.9099C8.21977 22.044 7.2486 22.5589 6.54468 23.3579C5.84075 24.1569 5.45239 25.1852 5.45239 26.25C5.45239 27.3148 5.84075 28.3431 6.54468 29.1421C7.2486 29.9411 8.21977 30.456 9.27612 30.5901C10.3325 30.7243 11.4015 30.4686 12.2828 29.871C13.1642 29.2733 13.7973 28.3748 14.0635 27.3438H20.9366C21.1745 28.2824 21.7187 29.115 22.4829 29.7097C23.2472 30.3044 24.1879 30.6273 25.1563 30.6273C26.1247 30.6273 27.0654 30.3044 27.8296 29.7097C28.5939 29.115 29.138 28.2824 29.376 27.3438H31.7188C32.0089 27.3438 32.2871 27.2285 32.4922 27.0234C32.6973 26.8183 32.8125 26.5401 32.8125 26.25V18.5938C32.8125 18.4456 32.7824 18.299 32.7239 18.1628ZM9.84378 28.4375C9.41113 28.4375 8.9882 28.3092 8.62847 28.0688C8.26874 27.8285 7.98836 27.4868 7.82279 27.0871C7.65723 26.6874 7.61391 26.2476 7.69831 25.8232C7.78272 25.3989 7.99106 25.0091 8.29698 24.7032C8.60291 24.3973 8.99269 24.1889 9.41702 24.1045C9.84135 24.0201 10.2812 24.0634 10.6809 24.229C11.0806 24.3946 11.4223 24.675 11.6626 25.0347C11.903 25.3944 12.0313 25.8174 12.0313 26.25C12.0313 26.8302 11.8008 27.3866 11.3906 27.7968C10.9803 28.207 10.4239 28.4375 9.84378 28.4375ZM25.1563 12.0312H27.7157L30.0607 17.5H25.1563V12.0312ZM25.1563 28.4375C24.7236 28.4375 24.3007 28.3092 23.941 28.0688C23.5812 27.8285 23.3009 27.4868 23.1353 27.0871C22.9697 26.6874 22.9264 26.2476 23.0108 25.8232C23.0952 25.3989 23.3036 25.0091 23.6095 24.7032C23.9154 24.3973 24.3052 24.1889 24.7295 24.1045C25.1539 24.0201 25.5937 24.0634 25.9934 24.229C26.3931 24.3946 26.7348 24.675 26.9751 25.0347C27.2155 25.3944 27.3438 25.8174 27.3438 26.25C27.3438 26.8302 27.1133 27.3866 26.7031 27.7968C26.2928 28.207 25.7364 28.4375 25.1563 28.4375ZM30.625 25.1562H29.376C29.135 24.2194 28.59 23.3889 27.8264 22.7951C27.0627 22.2013 26.1236 21.8777 25.1563 21.875V19.6875H30.625V25.1562Z" fill="#00295D"/>
</svg>
