<svg width="35" height="35" viewBox="0 0 35 35" fill="none" xmlns="http://www.w3.org/2000/svg">
<path d="M11.6667 10.2083C12.0799 10.2083 12.4265 10.0683 12.7065 9.78829C12.9865 9.50829 13.126 9.16218 13.125 8.74996C13.1241 8.33774 12.9841 7.99163 12.705 7.71163C12.426 7.43163 12.0799 7.29163 11.6667 7.29163C11.2535 7.29163 10.9074 7.43163 10.6284 7.71163C10.3493 7.99163 10.2093 8.33774 10.2084 8.74996C10.2074 9.16218 10.3474 9.50878 10.6284 9.78975C10.9093 10.0707 11.2555 10.2102 11.6667 10.2083ZM16.0417 10.2083C16.4549 10.2083 16.8015 10.0683 17.0815 9.78829C17.3615 9.50829 17.501 9.16218 17.5 8.74996C17.4991 8.33774 17.3591 7.99163 17.08 7.71163C16.801 7.43163 16.4549 7.29163 16.0417 7.29163C15.6285 7.29163 15.2824 7.43163 15.0034 7.71163C14.7243 7.99163 14.5843 8.33774 14.5834 8.74996C14.5824 9.16218 14.7224 9.50878 15.0034 9.78975C15.2843 10.0707 15.6305 10.2102 16.0417 10.2083ZM17.5 26.25C19.0313 26.25 20.338 25.7274 21.42 24.6823C22.5021 23.6371 23.0427 22.3611 23.0417 20.8541C23.0417 20.1493 22.9202 19.4629 22.6771 18.795C22.4341 18.127 22.0695 17.5495 21.5834 17.0625L18.5209 14C18.2292 13.7083 17.8889 13.5625 17.5 13.5625C17.1112 13.5625 16.7709 13.7083 16.4792 14L13.5625 16.9166C13.0278 17.4513 12.6209 18.059 12.3419 18.7395C12.0629 19.4201 11.935 20.125 11.9584 20.8541C12.007 22.3611 12.566 23.6371 13.6355 24.6823C14.7049 25.7274 15.9931 26.25 17.5 26.25ZM17.5 23.4791C16.7709 23.4791 16.1511 23.2239 15.6407 22.7135C15.1302 22.2031 14.875 21.5833 14.875 20.8541C14.875 20.4895 14.9421 20.1434 15.0763 19.8158C15.2105 19.4882 15.4107 19.1902 15.6771 18.9218L17.5 17.0989L19.2865 18.8854C19.5539 19.1527 19.7605 19.4566 19.9063 19.7968C20.0521 20.1371 20.125 20.4895 20.125 20.8541C20.125 21.5833 19.8698 22.2031 19.3594 22.7135C18.849 23.2239 18.2292 23.4791 17.5 23.4791ZM8.75004 32.0833C7.94796 32.0833 7.26157 31.7979 6.69087 31.2273C6.12018 30.6566 5.83435 29.9697 5.83337 29.1666V5.83329C5.83337 5.03121 6.11921 4.34482 6.69087 3.77413C7.26254 3.20343 7.94893 2.9176 8.75004 2.91663H26.25C27.0521 2.91663 27.739 3.20246 28.3107 3.77413C28.8823 4.34579 29.1677 5.03218 29.1667 5.83329V29.1666C29.1667 29.9687 28.8814 30.6556 28.3107 31.2273C27.74 31.7989 27.0531 32.0843 26.25 32.0833H8.75004ZM8.75004 29.1666H26.25V5.83329H8.75004V29.1666Z" fill="#00295D"/>
</svg>
