<svg width="35" height="35" viewBox="0 0 35 35" fill="none" xmlns="http://www.w3.org/2000/svg">
<path d="M2.92407 13.8542V5.83333C2.92407 5.44656 3.07772 5.07563 3.35121 4.80214C3.6247 4.52865 3.99563 4.375 4.38241 4.375H30.6324C31.0192 4.375 31.3901 4.52865 31.6636 4.80214C31.9371 5.07563 32.0907 5.44656 32.0907 5.83333V13.8542C31.1238 13.8542 30.1965 14.2383 29.5127 14.922C28.829 15.6057 28.4449 16.5331 28.4449 17.5C28.4449 18.4669 28.829 19.3943 29.5127 20.078C30.1965 20.7617 31.1238 21.1458 32.0907 21.1458V29.1667C32.0907 29.5534 31.9371 29.9244 31.6636 30.1979C31.3901 30.4714 31.0192 30.625 30.6324 30.625H4.38241C3.99563 30.625 3.6247 30.4714 3.35121 30.1979C3.07772 29.9244 2.92407 29.5534 2.92407 29.1667V21.1458C3.89101 21.1458 4.81834 20.7617 5.50207 20.078C6.18579 19.3943 6.56991 18.4669 6.56991 17.5C6.56991 16.5331 6.18579 15.6057 5.50207 14.922C4.81834 14.2383 3.89101 13.8542 2.92407 13.8542ZM5.84074 11.62C6.93625 12.1629 7.8583 13.0011 8.50293 14.04C9.14756 15.079 9.48913 16.2773 9.48913 17.5C9.48913 18.7227 9.14756 19.921 8.50293 20.96C7.8583 21.9989 6.93625 22.8371 5.84074 23.38V27.7083H29.1741V23.38C28.0786 22.8371 27.1565 21.9989 26.5119 20.96C25.8672 19.921 25.5257 18.7227 25.5257 17.5C25.5257 16.2773 25.8672 15.079 26.5119 14.04C27.1565 13.0011 28.0786 12.1629 29.1741 11.62V7.29167H5.84074V11.62ZM13.1324 13.125H21.8824V16.0417H13.1324V13.125ZM13.1324 18.9583H21.8824V21.875H13.1324V18.9583Z" fill="#00295D"/>
</svg>
