<svg width="36" height="35" viewBox="0 0 36 35" fill="none" xmlns="http://www.w3.org/2000/svg">
<path d="M32.5833 24.7917H3.41659C3.02981 24.7917 2.65888 24.9454 2.38539 25.2188C2.1119 25.4923 1.95825 25.8633 1.95825 26.25C1.95825 26.6368 2.1119 27.0077 2.38539 27.2812C2.65888 27.5547 3.02981 27.7084 3.41659 27.7084H32.5833C32.97 27.7084 33.341 27.5547 33.6144 27.2812C33.8879 27.0077 34.0416 26.6368 34.0416 26.25C34.0416 25.8633 33.8879 25.4923 33.6144 25.2188C33.341 24.9454 32.97 24.7917 32.5833 24.7917ZM32.5833 30.625H3.41659C3.02981 30.625 2.65888 30.7787 2.38539 31.0522C2.1119 31.3257 1.95825 31.6966 1.95825 32.0834C1.95825 32.4701 2.1119 32.8411 2.38539 33.1146C2.65888 33.3881 3.02981 33.5417 3.41659 33.5417H32.5833C32.97 33.5417 33.341 33.3881 33.6144 33.1146C33.8879 32.8411 34.0416 32.4701 34.0416 32.0834C34.0416 31.6966 33.8879 31.3257 33.6144 31.0522C33.341 30.7787 32.97 30.625 32.5833 30.625ZM9.24992 10.2084C8.96149 10.2084 8.67953 10.2939 8.43971 10.4541C8.19989 10.6144 8.01297 10.8422 7.90259 11.1086C7.79222 11.3751 7.76334 11.6683 7.81961 11.9512C7.87588 12.2341 8.01477 12.494 8.21872 12.6979C8.42267 12.9019 8.68252 13.0407 8.96541 13.097C9.2483 13.1533 9.54152 13.1244 9.808 13.014C10.0745 12.9037 10.3022 12.7167 10.4625 12.4769C10.6227 12.2371 10.7083 11.9551 10.7083 11.6667C10.7083 11.2799 10.5546 10.909 10.2811 10.6355C10.0076 10.362 9.63669 10.2084 9.24992 10.2084ZM29.6666 1.45837H6.33325C5.17293 1.45837 4.06013 1.91931 3.23966 2.73978C2.41919 3.56025 1.95825 4.67305 1.95825 5.83337V17.5C1.95825 18.6604 2.41919 19.7732 3.23966 20.5936C4.06013 21.4141 5.17293 21.875 6.33325 21.875H29.6666C30.8269 21.875 31.9397 21.4141 32.7602 20.5936C33.5806 19.7732 34.0416 18.6604 34.0416 17.5V5.83337C34.0416 4.67305 33.5806 3.56025 32.7602 2.73978C31.9397 1.91931 30.8269 1.45837 29.6666 1.45837ZM31.1249 17.5C31.1249 17.8868 30.9713 18.2577 30.6978 18.5312C30.4243 18.8047 30.0534 18.9584 29.6666 18.9584H6.33325C5.94648 18.9584 5.57554 18.8047 5.30205 18.5312C5.02856 18.2577 4.87492 17.8868 4.87492 17.5V5.83337C4.87492 5.4466 5.02856 5.07567 5.30205 4.80218C5.57554 4.52869 5.94648 4.37504 6.33325 4.37504H29.6666C30.0534 4.37504 30.4243 4.52869 30.6978 4.80218C30.9713 5.07567 31.1249 5.4466 31.1249 5.83337V17.5ZM17.9999 7.29171C17.1346 7.29171 16.2888 7.5483 15.5693 8.02903C14.8498 8.50976 14.2891 9.19304 13.9579 9.99247C13.6268 10.7919 13.5402 11.6716 13.709 12.5202C13.8778 13.3689 14.2945 14.1484 14.9063 14.7603C15.5182 15.3722 16.2977 15.7888 17.1464 15.9576C17.9951 16.1265 18.8747 16.0398 19.6742 15.7087C20.4736 15.3775 21.1569 14.8168 21.6376 14.0973C22.1183 13.3779 22.3749 12.532 22.3749 11.6667C22.3749 10.5064 21.914 9.39359 21.0935 8.57311C20.273 7.75264 19.1602 7.29171 17.9999 7.29171ZM17.9999 13.125C17.7115 13.125 17.4295 13.0395 17.1897 12.8793C16.9499 12.719 16.763 12.4913 16.6526 12.2248C16.5422 11.9583 16.5133 11.6651 16.5696 11.3822C16.6259 11.0993 16.7648 10.8395 16.9687 10.6355C17.1727 10.4316 17.4325 10.2927 17.7154 10.2364C17.9983 10.1801 18.2915 10.209 18.558 10.3194C18.8245 10.4298 19.0522 10.6167 19.2125 10.8565C19.3727 11.0963 19.4583 11.3783 19.4583 11.6667C19.4583 12.0535 19.3046 12.4244 19.0311 12.6979C18.7576 12.9714 18.3867 13.125 17.9999 13.125ZM26.7499 10.2084C26.4615 10.2084 26.1795 10.2939 25.9397 10.4541C25.6999 10.6144 25.513 10.8422 25.4026 11.1086C25.2922 11.3751 25.2633 11.6683 25.3196 11.9512C25.3759 12.2341 25.5148 12.494 25.7187 12.6979C25.9227 12.9019 26.1825 13.0407 26.4654 13.097C26.7483 13.1533 27.0415 13.1244 27.308 13.014C27.5745 12.9037 27.8022 12.7167 27.9625 12.4769C28.1227 12.2371 28.2083 11.9551 28.2083 11.6667C28.2083 11.2799 28.0546 10.909 27.7811 10.6355C27.5076 10.362 27.1367 10.2084 26.7499 10.2084Z" fill="#00295D"/>
</svg>
