<svg width="40" height="40" viewBox="0 0 40 40" fill="none" xmlns="http://www.w3.org/2000/svg">
<path d="M24.715 19.9134L27.0717 17.5567L20 10.4834L12.9283 17.5551L15.2867 19.9117L18.3333 16.8667V29.4284H21.6667V16.8667L24.715 19.9134Z" fill="white"/>
<path fill-rule="evenodd" clip-rule="evenodd" d="M32.9633 7.03699C25.8033 -0.123008 14.1966 -0.123008 7.03663 7.03699C-0.123374 14.197 -0.123374 25.8037 7.03663 32.9637C14.1966 40.1237 25.8033 40.1237 32.9633 32.9637C40.1233 25.8037 40.1233 14.197 32.9633 7.03699ZM30.6066 9.39366C27.7936 6.5806 23.9782 5.00023 20 5.00023C16.0217 5.00023 12.2064 6.5806 9.39329 9.39366C6.58023 12.2067 4.99987 16.0221 4.99987 20.0003C4.99987 23.9786 6.58023 27.7939 9.39329 30.607C12.2064 33.4201 16.0217 35.0004 20 35.0004C23.9782 35.0004 27.7936 33.4201 30.6066 30.607C33.4197 27.7939 35.0001 23.9786 35.0001 20.0003C35.0001 16.0221 33.4197 12.2067 30.6066 9.39366Z" fill="white"/>
</svg>
