<svg width="35" height="35" viewBox="0 0 35 35" fill="none" xmlns="http://www.w3.org/2000/svg">
<path fill-rule="evenodd" clip-rule="evenodd" d="M26.6671 17.5C26.6671 17.8867 26.5135 18.2577 26.24 18.5312C25.9665 18.8046 25.5956 18.9583 25.2088 18.9583L6.97961 18.9583C6.59284 18.9583 6.22191 18.8046 5.94842 18.5312C5.67493 18.2577 5.52128 17.8867 5.52128 17.5C5.52128 17.1132 5.67493 16.7423 5.94842 16.4688C6.22191 16.1953 6.59284 16.0416 6.97961 16.0416L25.2088 16.0416C25.5956 16.0416 25.9665 16.1953 26.24 16.4688C26.5135 16.7423 26.6671 17.1132 26.6671 17.5Z" fill="#FFC702"/>
<path fill-rule="evenodd" clip-rule="evenodd" d="M28.8546 17.5C28.8545 17.8868 28.7008 18.2576 28.4273 18.5311L21.8648 25.0936C21.5914 25.3672 21.2204 25.521 20.8336 25.5211C20.4467 25.5213 20.0757 25.3677 19.802 25.0943C19.5284 24.8208 19.3746 24.4499 19.3744 24.063C19.3743 23.6762 19.5278 23.3051 19.8013 23.0315L25.3342 17.5L19.8027 11.9686C19.5293 11.6949 19.3757 11.3238 19.3759 10.937C19.376 10.5501 19.5298 10.1792 19.8035 9.90574C20.0771 9.63229 20.4482 9.47874 20.835 9.47888C21.2219 9.47902 21.5928 9.63283 21.8663 9.90647L28.4288 16.469C28.7018 16.7426 28.8549 17.1135 28.8546 17.5Z" fill="#FFC702"/>
</svg>
