<svg width="91" height="26" viewBox="0 0 91 26" fill="none" xmlns="http://www.w3.org/2000/svg">
<path d="M90.8349 4.23665C90.9656 3.4186 90.4084 2.64948 89.5903 2.51879L76.2594 0.388995C75.4413 0.2583 74.6722 0.815514 74.5415 1.63357C74.4108 2.45162 74.968 3.22073 75.7861 3.35143L87.6358 5.24458L85.7427 17.0943C85.612 17.9124 86.1692 18.6815 86.9872 18.8122C87.8053 18.9429 88.5744 18.3856 88.7051 17.5676L90.8349 4.23665ZM1 4.50488C0.0671768 5.67955 0.0672168 5.67958 0.0672595 5.67961C0.0672773 5.67963 0.0673227 5.67966 0.0673584 5.67969C0.0674296 5.67975 0.0675116 5.67981 0.0676043 5.67989C0.0677897 5.68004 0.0680181 5.68022 0.0682892 5.68043C0.0688315 5.68086 0.0695451 5.68143 0.0704295 5.68213C0.0721982 5.68353 0.07465 5.68547 0.0777804 5.68795C0.0840411 5.6929 0.0930163 5.69999 0.10467 5.70916C0.127977 5.72751 0.162 5.75422 0.206453 5.78892C0.295355 5.85831 0.425987 5.95964 0.596053 6.08993C0.936162 6.3505 1.43413 6.72698 2.0716 7.19543L2.95984 5.9867L3.84809 4.77798C3.22787 4.3222 2.74592 3.95778 2.42053 3.70849C2.25785 3.58385 2.13433 3.48802 2.05228 3.42398C2.01125 3.39196 1.98059 3.36789 1.96058 3.35213C1.95058 3.34426 1.94324 3.33846 1.9386 3.33479C1.93629 3.33296 1.93464 3.33166 1.93368 3.33089C1.93319 3.33051 1.93288 3.33026 1.93274 3.33015C1.93267 3.33009 1.93264 3.33007 1.93265 3.33008C1.93266 3.33009 1.93268 3.3301 1.93271 3.33012C1.93272 3.33013 1.93275 3.33016 1.93276 3.33016C1.93279 3.33019 1.93282 3.33022 1 4.50488ZM7.00249 8.83307L6.16238 10.0757C7.41184 10.9204 8.821 11.8429 10.3579 12.8013L11.1517 11.5285L11.9454 10.2557C10.4429 9.31877 9.06477 8.41666 7.8426 7.59041L7.00249 8.83307ZM15.3969 14.0627L14.654 15.3659C16.0629 16.169 17.5387 16.9725 19.0644 17.7539L19.7482 16.4188L20.4319 15.0837C18.95 14.3247 17.5137 13.5428 16.1397 12.7596L15.3969 14.0627ZM24.2031 18.558L23.5909 19.9274C25.1182 20.6102 26.6778 21.2544 28.2548 21.84L28.777 20.4338L29.2991 19.0276C27.7896 18.467 26.2902 17.848 24.8153 17.1886L24.2031 18.558ZM33.4765 21.9706L33.0721 23.4151C34.7299 23.8792 36.3949 24.2601 38.0498 24.5339L38.2946 23.054L38.5395 21.5741C37.0057 21.3203 35.4478 20.9649 33.8809 20.5262L33.4765 21.9706ZM43.2158 23.5149L43.1936 25.0148C44.0704 25.0277 44.9407 25.0019 45.8013 24.933L45.6817 23.4378L45.5621 21.9426C44.8021 22.0034 44.0267 22.0267 43.238 22.0151L43.2158 23.5149ZM45.6817 23.4378L45.8013 24.933C46.6245 24.8672 47.4555 24.7718 48.2917 24.65L48.0754 23.1656L47.8591 21.6813C47.0823 21.7945 46.316 21.8823 45.5621 21.9426L45.6817 23.4378ZM52.8091 22.2146L53.1751 23.6693C54.7516 23.2726 56.3361 22.8025 57.9138 22.2759L57.4388 20.853L56.9639 19.4302C55.4491 19.9359 53.9377 20.3839 52.4432 20.7599L52.8091 22.2146ZM61.9698 19.185L62.5276 20.5774C64.05 19.9675 65.5552 19.3179 67.0298 18.644L66.4064 17.2797L65.7829 15.9154C64.347 16.5716 62.8857 17.2021 61.4119 17.7926L61.9698 19.185ZM70.7565 15.1831L71.4338 16.5214C72.9261 15.7662 74.3697 15.0002 75.7488 14.2414L75.0257 12.9272L74.3026 11.613C72.9509 12.3567 71.5378 13.1065 70.0792 13.8447L70.7565 15.1831ZM79.2146 10.5358L79.9782 11.8269C81.5024 10.9255 82.9004 10.0652 84.141 9.28108L83.3395 8.01312L82.5381 6.74517C81.3201 7.51503 79.9474 8.35974 78.4511 9.24463L79.2146 10.5358ZM87.3847 5.36773L88.2265 6.60927C88.8656 6.17594 89.3647 5.82927 89.7053 5.58999C89.8756 5.47034 90.0064 5.37752 90.0952 5.31411C90.1396 5.28241 90.1735 5.25806 90.1967 5.24139C90.2083 5.23305 90.2172 5.22663 90.2234 5.22217C90.2265 5.21995 90.2289 5.21821 90.2306 5.21696C90.2315 5.21634 90.2322 5.21584 90.2327 5.21546C90.2329 5.21528 90.2332 5.21512 90.2333 5.215C90.2334 5.21493 90.2335 5.21488 90.2336 5.21483C90.2336 5.21481 90.2336 5.21478 90.2336 5.21477C90.2337 5.21474 90.2337 5.21471 89.3537 4C88.4736 2.78529 88.4737 2.78527 88.4737 2.78525C88.4737 2.78525 88.4737 2.78523 88.4737 2.78522C88.4737 2.78521 88.4738 2.7852 88.4738 2.7852C88.4738 2.7852 88.4737 2.78523 88.4736 2.78529C88.4735 2.78542 88.4731 2.78566 88.4726 2.78603C88.4716 2.78677 88.4699 2.78801 88.4675 2.78973C88.4627 2.79318 88.4552 2.79857 88.4451 2.80588C88.4247 2.8205 88.3937 2.84276 88.3523 2.87235C88.2693 2.93154 88.1448 3.02001 87.9808 3.1352C87.6528 3.3656 87.1674 3.7028 86.543 4.12619L87.3847 5.36773ZM90.8349 4.23665C90.9656 3.4186 90.4084 2.64948 89.5903 2.51879L76.2594 0.388995C75.4413 0.2583 74.6722 0.815514 74.5415 1.63357C74.4108 2.45162 74.968 3.22073 75.7861 3.35143L87.6358 5.24458L85.7427 17.0943C85.612 17.9124 86.1692 18.6815 86.9872 18.8122C87.8053 18.9429 88.5744 18.3856 88.7051 17.5676L90.8349 4.23665ZM1 4.50488C0.0671768 5.67955 0.0672168 5.67958 0.0672595 5.67961C0.0672773 5.67963 0.0673227 5.67966 0.0673584 5.67969C0.0674296 5.67975 0.0675116 5.67981 0.0676043 5.67989C0.0677897 5.68004 0.0680181 5.68022 0.0682892 5.68043C0.0688315 5.68086 0.0695451 5.68143 0.0704295 5.68213C0.0721982 5.68353 0.07465 5.68547 0.0777804 5.68795C0.0840411 5.6929 0.0930163 5.69999 0.10467 5.70916C0.127977 5.72751 0.162 5.75422 0.206453 5.78892C0.295355 5.85831 0.425987 5.95964 0.596053 6.08993C0.936162 6.3505 1.43413 6.72698 2.0716 7.19543L2.95984 5.9867L3.84809 4.77798C3.22787 4.3222 2.74592 3.95778 2.42053 3.70849C2.25785 3.58385 2.13433 3.48802 2.05228 3.42398C2.01125 3.39196 1.98059 3.36789 1.96058 3.35213C1.95058 3.34426 1.94324 3.33846 1.9386 3.33479C1.93629 3.33296 1.93464 3.33166 1.93368 3.33089C1.93319 3.33051 1.93288 3.33026 1.93274 3.33015C1.93267 3.33009 1.93264 3.33007 1.93265 3.33008C1.93266 3.33009 1.93268 3.3301 1.93271 3.33012C1.93272 3.33013 1.93275 3.33016 1.93276 3.33016C1.93279 3.33019 1.93282 3.33022 1 4.50488ZM7.00249 8.83307L6.16238 10.0757C7.41184 10.9204 8.821 11.8429 10.3579 12.8013L11.1517 11.5285L11.9454 10.2557C10.4429 9.31877 9.06477 8.41666 7.8426 7.59041L7.00249 8.83307ZM15.3969 14.0627L14.654 15.3659C16.0629 16.169 17.5387 16.9725 19.0644 17.7539L19.7482 16.4188L20.4319 15.0837C18.95 14.3247 17.5137 13.5428 16.1397 12.7596L15.3969 14.0627ZM24.2031 18.558L23.5909 19.9274C25.1182 20.6102 26.6778 21.2544 28.2548 21.84L28.777 20.4338L29.2991 19.0276C27.7896 18.467 26.2902 17.848 24.8153 17.1886L24.2031 18.558ZM33.4765 21.9706L33.0721 23.4151C34.7299 23.8792 36.3949 24.2601 38.0498 24.5339L38.2946 23.054L38.5395 21.5741C37.0057 21.3203 35.4478 20.9649 33.8809 20.5262L33.4765 21.9706ZM43.2158 23.5149L43.1936 25.0148C44.0704 25.0277 44.9407 25.0019 45.8013 24.933L45.6817 23.4378L45.5621 21.9426C44.8021 22.0034 44.0267 22.0267 43.238 22.0151L43.2158 23.5149ZM45.6817 23.4378L45.8013 24.933C46.6245 24.8672 47.4555 24.7718 48.2917 24.65L48.0754 23.1656L47.8591 21.6813C47.0823 21.7945 46.316 21.8823 45.5621 21.9426L45.6817 23.4378ZM52.8091 22.2146L53.1751 23.6693C54.7516 23.2726 56.3361 22.8025 57.9138 22.2759L57.4388 20.853L56.9639 19.4302C55.4491 19.9359 53.9377 20.3839 52.4432 20.7599L52.8091 22.2146ZM61.9698 19.185L62.5276 20.5774C64.05 19.9675 65.5552 19.3179 67.0298 18.644L66.4064 17.2797L65.7829 15.9154C64.347 16.5716 62.8857 17.2021 61.4119 17.7926L61.9698 19.185ZM70.7565 15.1831L71.4338 16.5214C72.9261 15.7662 74.3697 15.0002 75.7488 14.2414L75.0257 12.9272L74.3026 11.613C72.9509 12.3567 71.5378 13.1065 70.0792 13.8447L70.7565 15.1831ZM79.2146 10.5358L79.9782 11.8269C81.5024 10.9255 82.9004 10.0652 84.141 9.28108L83.3395 8.01312L82.5381 6.74517C81.3201 7.51503 79.9474 8.35974 78.4511 9.24463L79.2146 10.5358ZM87.3847 5.36773L88.2265 6.60927C88.8656 6.17594 89.3647 5.82927 89.7053 5.58999C89.8756 5.47034 90.0064 5.37752 90.0952 5.31411C90.1396 5.28241 90.1735 5.25806 90.1967 5.24139C90.2083 5.23305 90.2172 5.22663 90.2234 5.22217C90.2265 5.21995 90.2289 5.21821 90.2306 5.21696C90.2315 5.21634 90.2322 5.21584 90.2327 5.21546C90.2329 5.21528 90.2332 5.21512 90.2333 5.215C90.2334 5.21493 90.2335 5.21488 90.2336 5.21483C90.2336 5.21481 90.2336 5.21478 90.2336 5.21477C90.2337 5.21474 90.2337 5.21471 89.3537 4C88.4736 2.78529 88.4737 2.78527 88.4737 2.78525C88.4737 2.78525 88.4737 2.78523 88.4737 2.78522C88.4737 2.78521 88.4738 2.7852 88.4738 2.7852C88.4738 2.7852 88.4737 2.78523 88.4736 2.78529C88.4735 2.78542 88.4731 2.78566 88.4726 2.78603C88.4716 2.78677 88.4699 2.78801 88.4675 2.78973C88.4627 2.79318 88.4552 2.79857 88.4451 2.80588C88.4247 2.8205 88.3937 2.84276 88.3523 2.87235C88.2693 2.93154 88.1448 3.02001 87.9808 3.1352C87.6528 3.3656 87.1674 3.7028 86.543 4.12619L87.3847 5.36773Z" fill="#FFC702"/>
</svg>
