<svg width="25" height="92" viewBox="0 0 25 92" fill="none" xmlns="http://www.w3.org/2000/svg">
<path d="M23.4009 45.5201L21.9013 45.4843L23.4009 45.5201ZM6.75371 91.676C5.94425 91.8522 5.14519 91.3388 4.96897 90.5294L2.09734 77.3383C1.92113 76.5289 2.43448 75.7298 3.24395 75.5536C4.05341 75.3774 4.85247 75.8907 5.02869 76.7002L7.58125 88.4256L19.3066 85.873C20.1161 85.6968 20.9151 86.2101 21.0914 87.0196C21.2676 87.8291 20.7542 88.6281 19.9448 88.8043L6.75371 91.676ZM2 1.96655C3.12069 0.969527 3.12072 0.969565 3.12076 0.969606C3.12077 0.969623 3.12081 0.969666 3.12084 0.9697C3.1209 0.969768 3.12097 0.969847 3.12105 0.969935C3.12121 0.970112 3.1214 0.97033 3.12163 0.970589C3.12209 0.971106 3.1227 0.971787 3.12344 0.972631C3.12494 0.974318 3.12702 0.976658 3.12967 0.979645C3.13496 0.985619 3.14254 0.994184 3.15235 1.00531C3.17198 1.02755 3.20055 1.06003 3.23767 1.10247C3.31192 1.18736 3.4204 1.31212 3.55999 1.47464C3.83916 1.79965 4.24289 2.2758 4.74624 2.88608L3.58905 3.8405L2.43187 4.79492C1.94214 4.20115 1.55134 3.74033 1.28425 3.42938C1.15072 3.27391 1.04814 3.15595 0.979606 3.0776C0.945341 3.03843 0.919593 3.00916 0.902747 2.99007C0.894324 2.98052 0.888128 2.97352 0.884206 2.9691C0.882245 2.96688 0.880853 2.96531 0.880035 2.96439C0.879626 2.96393 0.879361 2.96363 0.879241 2.9635C0.87918 2.96343 0.879156 2.9634 0.879168 2.96342C0.879174 2.96342 0.879189 2.96344 0.879213 2.96347C0.879225 2.96348 0.87925 2.96351 0.879256 2.96351C0.879283 2.96355 0.879313 2.96358 2 1.96655ZM6.65695 7.71772L7.85071 6.80946C8.76393 8.00975 9.76369 9.36515 10.8065 10.8461L9.58008 11.7097L8.35363 12.5733C7.33419 11.1256 6.35646 9.80005 5.46319 8.62598L6.65695 7.71772ZM12.3477 15.8067L13.6072 14.9921C14.4879 16.3539 15.3726 17.7825 16.238 19.2621L14.9432 20.0195L13.6484 20.7768C12.8079 19.3396 11.9469 17.9492 11.0881 16.6212L12.3477 15.8067ZM17.3281 24.3479L18.6612 23.6601C19.4283 25.1468 20.1586 26.668 20.8314 28.2097L19.4566 28.8097L18.0819 29.4097C17.4378 27.9338 16.7359 26.4714 15.9951 25.0357L17.3281 24.3479ZM21.2538 33.416L22.6734 32.9314C23.2295 34.5607 23.7028 36.2018 24.0686 37.8388L22.6048 38.166L21.1409 38.4932C20.8018 36.976 20.3598 35.4405 19.8342 33.9005L21.2538 33.416ZM23.3401 43.0537L24.8363 42.9477C24.8983 43.8224 24.9211 44.6928 24.9005 45.556L23.4009 45.5201L21.9013 45.4843C21.9196 44.722 21.8995 43.9465 21.8438 43.1597L23.3401 43.0537ZM23.4009 45.5201L24.9005 45.556C24.8807 46.3816 24.832 47.2165 24.7571 48.0583L23.263 47.9253L21.7689 47.7923C21.8385 47.0104 21.8833 46.2404 21.9013 45.4843L23.4009 45.5201ZM22.578 52.7048L24.0509 52.9888C23.743 54.5851 23.3621 56.1933 22.9245 57.798L21.4774 57.4033L20.0302 57.0087C20.4504 55.4679 20.8133 53.9339 21.1051 52.4207L22.578 52.7048ZM20.0652 62.0204L21.4866 62.4996C20.9628 64.0536 20.3983 65.5928 19.8079 67.1028L18.4109 66.5566L17.0139 66.0103C17.5888 64.54 18.1366 63.0457 18.6438 61.5413L20.0652 62.0204ZM16.5607 71.0171L17.9348 71.6186C17.2642 73.1507 16.58 74.6349 15.8995 76.0542L14.547 75.4057L13.1944 74.7572C13.8614 73.3661 14.531 71.9133 15.1866 70.4157L16.5607 71.0171ZM12.3934 79.7218L13.7252 80.4119C12.9104 81.9842 12.1296 83.4281 11.4161 84.7106L10.1053 83.9813L8.79454 83.252C9.49512 81.9928 10.2618 80.5751 11.0616 79.0316L12.3934 79.7218ZM7.69017 88.168L8.97682 88.9391C8.57989 89.6014 8.26167 90.1191 8.0418 90.4725C7.93185 90.6493 7.84649 90.785 7.78815 90.8772C7.75898 90.9233 7.73656 90.9586 7.72121 90.9826C7.71354 90.9947 7.70763 91.0039 7.70352 91.0103C7.70147 91.0136 7.69986 91.0161 7.69872 91.0178C7.69814 91.0187 7.69768 91.0195 7.69734 91.02C7.69717 91.0203 7.69702 91.0205 7.69691 91.0207C7.69685 91.0208 7.6968 91.0208 7.69676 91.0209C7.69673 91.0209 7.69671 91.021 7.6967 91.021C7.69667 91.021 7.69665 91.0211 6.43464 90.2103C5.17264 89.3995 5.17262 89.3996 5.1726 89.3996C5.1726 89.3996 5.17258 89.3996 5.17258 89.3996C5.17256 89.3997 5.17255 89.3997 5.17255 89.3997C5.17255 89.3997 5.17258 89.3996 5.17264 89.3995C5.17275 89.3994 5.17298 89.399 5.17332 89.3985C5.174 89.3974 5.17514 89.3956 5.17673 89.3931C5.1799 89.3882 5.18487 89.3804 5.1916 89.3699C5.20506 89.3488 5.22555 89.3165 5.25278 89.2735C5.30724 89.1874 5.38861 89.0581 5.49446 88.8879C5.70616 88.5476 6.0157 88.0441 6.40352 87.397L7.69017 88.168ZM23.4009 45.5201L21.9013 45.4843L23.4009 45.5201ZM6.75371 91.676C5.94425 91.8522 5.14519 91.3388 4.96897 90.5294L2.09734 77.3383C1.92113 76.5289 2.43448 75.7298 3.24395 75.5536C4.05341 75.3774 4.85247 75.8907 5.02869 76.7002L7.58125 88.4256L19.3066 85.873C20.1161 85.6968 20.9151 86.2101 21.0914 87.0196C21.2676 87.8291 20.7542 88.6281 19.9448 88.8043L6.75371 91.676ZM2 1.96655C3.12069 0.969527 3.12072 0.969565 3.12076 0.969606C3.12077 0.969623 3.12081 0.969666 3.12084 0.9697C3.1209 0.969768 3.12097 0.969847 3.12105 0.969935C3.12121 0.970112 3.1214 0.97033 3.12163 0.970589C3.12209 0.971106 3.1227 0.971787 3.12344 0.972631C3.12494 0.974318 3.12702 0.976658 3.12967 0.979645C3.13496 0.985619 3.14254 0.994184 3.15235 1.00531C3.17198 1.02755 3.20055 1.06003 3.23767 1.10247C3.31192 1.18736 3.4204 1.31212 3.55999 1.47464C3.83916 1.79965 4.24289 2.2758 4.74624 2.88608L3.58905 3.8405L2.43187 4.79492C1.94214 4.20115 1.55134 3.74033 1.28425 3.42938C1.15072 3.27391 1.04814 3.15595 0.979606 3.0776C0.945341 3.03843 0.919593 3.00916 0.902747 2.99007C0.894324 2.98052 0.888128 2.97352 0.884206 2.9691C0.882245 2.96688 0.880853 2.96531 0.880035 2.96439C0.879626 2.96393 0.879361 2.96363 0.879241 2.9635C0.87918 2.96343 0.879156 2.9634 0.879168 2.96342C0.879174 2.96342 0.879189 2.96344 0.879213 2.96347C0.879225 2.96348 0.87925 2.96351 0.879256 2.96351C0.879283 2.96355 0.879313 2.96358 2 1.96655ZM6.65695 7.71772L7.85071 6.80946C8.76393 8.00975 9.76369 9.36515 10.8065 10.8461L9.58008 11.7097L8.35363 12.5733C7.33419 11.1256 6.35646 9.80005 5.46319 8.62598L6.65695 7.71772ZM12.3477 15.8067L13.6072 14.9921C14.4879 16.3539 15.3726 17.7825 16.238 19.2621L14.9432 20.0195L13.6484 20.7768C12.8079 19.3396 11.9469 17.9492 11.0881 16.6212L12.3477 15.8067ZM17.3281 24.3479L18.6612 23.6601C19.4283 25.1468 20.1586 26.668 20.8314 28.2097L19.4566 28.8097L18.0819 29.4097C17.4378 27.9338 16.7359 26.4714 15.9951 25.0357L17.3281 24.3479ZM21.2538 33.416L22.6734 32.9314C23.2295 34.5607 23.7028 36.2018 24.0686 37.8388L22.6048 38.166L21.1409 38.4932C20.8018 36.976 20.3598 35.4405 19.8342 33.9005L21.2538 33.416ZM23.3401 43.0537L24.8363 42.9477C24.8983 43.8224 24.9211 44.6928 24.9005 45.556L23.4009 45.5201L21.9013 45.4843C21.9196 44.722 21.8995 43.9465 21.8438 43.1597L23.3401 43.0537ZM23.4009 45.5201L24.9005 45.556C24.8807 46.3816 24.832 47.2165 24.7571 48.0583L23.263 47.9253L21.7689 47.7923C21.8385 47.0104 21.8833 46.2404 21.9013 45.4843L23.4009 45.5201ZM22.578 52.7048L24.0509 52.9888C23.743 54.5851 23.3621 56.1933 22.9245 57.798L21.4774 57.4033L20.0302 57.0087C20.4504 55.4679 20.8133 53.9339 21.1051 52.4207L22.578 52.7048ZM20.0652 62.0204L21.4866 62.4996C20.9628 64.0536 20.3983 65.5928 19.8079 67.1028L18.4109 66.5566L17.0139 66.0103C17.5888 64.54 18.1366 63.0457 18.6438 61.5413L20.0652 62.0204ZM16.5607 71.0171L17.9348 71.6186C17.2642 73.1507 16.58 74.6349 15.8995 76.0542L14.547 75.4057L13.1944 74.7572C13.8614 73.3661 14.531 71.9133 15.1866 70.4157L16.5607 71.0171ZM12.3934 79.7218L13.7252 80.4119C12.9104 81.9842 12.1296 83.4281 11.4161 84.7106L10.1053 83.9813L8.79454 83.252C9.49512 81.9928 10.2618 80.5751 11.0616 79.0316L12.3934 79.7218ZM7.69017 88.168L8.97682 88.9391C8.57989 89.6014 8.26167 90.1191 8.0418 90.4725C7.93185 90.6493 7.84649 90.785 7.78815 90.8772C7.75898 90.9233 7.73656 90.9586 7.72121 90.9826C7.71354 90.9947 7.70763 91.0039 7.70352 91.0103C7.70147 91.0136 7.69986 91.0161 7.69872 91.0178C7.69814 91.0187 7.69768 91.0195 7.69734 91.02C7.69717 91.0203 7.69702 91.0205 7.69691 91.0207C7.69685 91.0208 7.6968 91.0208 7.69676 91.0209C7.69673 91.0209 7.69671 91.021 7.6967 91.021C7.69667 91.021 7.69665 91.0211 6.43464 90.2103C5.17264 89.3995 5.17262 89.3996 5.1726 89.3996C5.1726 89.3996 5.17258 89.3996 5.17258 89.3996C5.17256 89.3997 5.17255 89.3997 5.17255 89.3997C5.17255 89.3997 5.17258 89.3996 5.17264 89.3995C5.17275 89.3994 5.17298 89.399 5.17332 89.3985C5.174 89.3974 5.17514 89.3956 5.17673 89.3931C5.1799 89.3882 5.18487 89.3804 5.1916 89.3699C5.20506 89.3488 5.22555 89.3165 5.25278 89.2735C5.30724 89.1874 5.38861 89.0581 5.49446 88.8879C5.70616 88.5476 6.0157 88.0441 6.40352 87.397L7.69017 88.168Z" fill="#FFC702"/>
</svg>
