<svg width="40" height="40" viewBox="0 0 40 40" fill="none" xmlns="http://www.w3.org/2000/svg">
<path d="M32.0499 25.4333L27.8166 24.9499C27.3188 24.8915 26.8143 24.9466 26.3409 25.1111C25.8675 25.2757 25.4375 25.5454 25.0833 25.8999L22.0166 28.9666C17.2856 26.5598 13.4401 22.7143 11.0333 17.9833L14.1166 14.8999C14.8333 14.1833 15.1833 13.1833 15.0666 12.1666L14.5833 7.96661C14.4891 7.15342 14.0991 6.40331 13.4874 5.85926C12.8757 5.31521 12.0852 5.01527 11.2666 5.01661H8.38328C6.49995 5.01661 4.93328 6.58327 5.04995 8.46661C5.93328 22.6999 17.3166 34.0666 31.5333 34.9499C33.4166 35.0666 34.9833 33.4999 34.9833 31.6166V28.7333C34.9999 27.0499 33.7333 25.6333 32.0499 25.4333Z" fill="#FFC702"/>
</svg>
