<svg width="24" height="25" viewBox="0 0 24 25" fill="none" xmlns="http://www.w3.org/2000/svg">
<path d="M19.23 15.76L16.69 15.47C16.3914 15.4349 16.0886 15.468 15.8046 15.5667C15.5206 15.6654 15.2626 15.8273 15.05 16.04L13.21 17.88C10.3714 16.4359 8.0641 14.1286 6.62004 11.29L8.47004 9.44C8.90004 9.01 9.11004 8.41 9.04004 7.8L8.75004 5.28C8.69356 4.79209 8.45951 4.34202 8.0925 4.01559C7.7255 3.68916 7.25121 3.5092 6.76004 3.51H5.03004C3.90004 3.51 2.96004 4.45 3.03004 5.58C3.56004 14.12 10.39 20.94 18.92 21.47C20.05 21.54 20.99 20.6 20.99 19.47V17.74C21 16.73 20.24 15.88 19.23 15.76Z" fill="#00295D"/>
</svg>
