<svg width="51" height="50" viewBox="0 0 51 50" fill="none" xmlns="http://www.w3.org/2000/svg">
<path d="M47.375 40.6245H44.25V26.562L44.707 27.0191C45.0007 27.3122 45.3989 27.4768 45.8139 27.4764C46.2289 27.476 46.6267 27.3108 46.9199 27.0171C47.2131 26.7234 47.3776 26.3253 47.3773 25.9103C47.3769 25.4953 47.2117 25.0974 46.918 24.8042L27.709 5.60109C27.123 5.01548 26.3284 4.68652 25.5 4.68652C24.6716 4.68652 23.877 5.01548 23.291 5.60109L4.08203 24.8042C3.7891 25.0974 3.62464 25.495 3.62482 25.9094C3.625 26.3238 3.78982 26.7212 4.08301 27.0142C4.3762 27.3071 4.77374 27.4716 5.18819 27.4714C5.60264 27.4712 6.00004 27.3064 6.29297 27.0132L6.75 26.562V40.6245H3.625C3.2106 40.6245 2.81317 40.7891 2.52015 41.0822C2.22712 41.3752 2.0625 41.7726 2.0625 42.187C2.0625 42.6014 2.22712 42.9989 2.52015 43.2919C2.81317 43.5849 3.2106 43.7495 3.625 43.7495H47.375C47.7894 43.7495 48.1868 43.5849 48.4799 43.2919C48.7729 42.9989 48.9375 42.6014 48.9375 42.187C48.9375 41.7726 48.7729 41.3752 48.4799 41.0822C48.1868 40.7891 47.7894 40.6245 47.375 40.6245ZM9.875 23.437L25.5 7.81203L41.125 23.437V40.6245H31.75V29.687C31.75 29.2726 31.5854 28.8752 31.2924 28.5822C30.9993 28.2891 30.6019 28.1245 30.1875 28.1245H20.8125C20.3981 28.1245 20.0007 28.2891 19.7076 28.5822C19.4146 28.8752 19.25 29.2726 19.25 29.687V40.6245H9.875V23.437ZM28.625 40.6245H22.375V31.2495H28.625V40.6245Z" fill="#00295D"/>
</svg>
