<svg width="50" height="50" viewBox="0 0 50 50" fill="none" xmlns="http://www.w3.org/2000/svg">
<path d="M35.4167 29.1667C35.9692 29.1667 36.4991 28.9472 36.8898 28.5565C37.2805 28.1658 37.5 27.6359 37.5 27.0833C37.5 26.5308 37.2805 26.0009 36.8898 25.6102C36.4991 25.2195 35.9692 25 35.4167 25C34.8641 25 34.3342 25.2195 33.9435 25.6102C33.5528 26.0009 33.3333 26.5308 33.3333 27.0833C33.3333 27.6359 33.5528 28.1658 33.9435 28.5565C34.3342 28.9472 34.8641 29.1667 35.4167 29.1667ZM35.4167 37.5C35.9692 37.5 36.4991 37.2805 36.8898 36.8898C37.2805 36.4991 37.5 35.9692 37.5 35.4167C37.5 34.8641 37.2805 34.3342 36.8898 33.9435C36.4991 33.5528 35.9692 33.3333 35.4167 33.3333C34.8641 33.3333 34.3342 33.5528 33.9435 33.9435C33.5528 34.3342 33.3333 34.8641 33.3333 35.4167C33.3333 35.9692 33.5528 36.4991 33.9435 36.8898C34.3342 37.2805 34.8641 37.5 35.4167 37.5ZM27.0833 27.0833C27.0833 27.6359 26.8638 28.1658 26.4731 28.5565C26.0824 28.9472 25.5525 29.1667 25 29.1667C24.4475 29.1667 23.9176 28.9472 23.5269 28.5565C23.1362 28.1658 22.9167 27.6359 22.9167 27.0833C22.9167 26.5308 23.1362 26.0009 23.5269 25.6102C23.9176 25.2195 24.4475 25 25 25C25.5525 25 26.0824 25.2195 26.4731 25.6102C26.8638 26.0009 27.0833 26.5308 27.0833 27.0833ZM27.0833 35.4167C27.0833 35.9692 26.8638 36.4991 26.4731 36.8898C26.0824 37.2805 25.5525 37.5 25 37.5C24.4475 37.5 23.9176 37.2805 23.5269 36.8898C23.1362 36.4991 22.9167 35.9692 22.9167 35.4167C22.9167 34.8641 23.1362 34.3342 23.5269 33.9435C23.9176 33.5528 24.4475 33.3333 25 33.3333C25.5525 33.3333 26.0824 33.5528 26.4731 33.9435C26.8638 34.3342 27.0833 34.8641 27.0833 35.4167ZM14.5833 29.1667C15.1359 29.1667 15.6658 28.9472 16.0565 28.5565C16.4472 28.1658 16.6667 27.6359 16.6667 27.0833C16.6667 26.5308 16.4472 26.0009 16.0565 25.6102C15.6658 25.2195 15.1359 25 14.5833 25C14.0308 25 13.5009 25.2195 13.1102 25.6102C12.7195 26.0009 12.5 26.5308 12.5 27.0833C12.5 27.6359 12.7195 28.1658 13.1102 28.5565C13.5009 28.9472 14.0308 29.1667 14.5833 29.1667ZM14.5833 37.5C15.1359 37.5 15.6658 37.2805 16.0565 36.8898C16.4472 36.4991 16.6667 35.9692 16.6667 35.4167C16.6667 34.8641 16.4472 34.3342 16.0565 33.9435C15.6658 33.5528 15.1359 33.3333 14.5833 33.3333C14.0308 33.3333 13.5009 33.5528 13.1102 33.9435C12.7195 34.3342 12.5 34.8641 12.5 35.4167C12.5 35.9692 12.7195 36.4991 13.1102 36.8898C13.5009 37.2805 14.0308 37.5 14.5833 37.5Z" fill="#00295D"/>
<path fill-rule="evenodd" clip-rule="evenodd" d="M14.5833 3.64551C14.9977 3.64551 15.3951 3.81013 15.6881 4.10315C15.9812 4.39618 16.1458 4.79361 16.1458 5.20801V6.79759C17.525 6.77051 19.0437 6.77051 20.7145 6.77051H29.2833C30.9562 6.77051 32.4749 6.77051 33.8541 6.79759V5.20801C33.8541 4.79361 34.0187 4.39618 34.3118 4.10315C34.6048 3.81013 35.0022 3.64551 35.4166 3.64551C35.831 3.64551 36.2284 3.81013 36.5215 4.10315C36.8145 4.39618 36.9791 4.79361 36.9791 5.20801V6.93092C37.5208 6.97259 38.034 7.02537 38.5187 7.08926C40.9604 7.41842 42.9375 8.11009 44.4979 9.66842C46.0562 11.2288 46.7479 13.2059 47.077 15.6476C47.3958 18.0226 47.3958 21.0538 47.3958 24.883V29.283C47.3958 33.1122 47.3958 36.1455 47.077 38.5184C46.7479 40.9601 46.0562 42.9372 44.4979 44.4976C42.9375 46.0559 40.9604 46.7476 38.5187 47.0768C36.1437 47.3955 33.1124 47.3955 29.2833 47.3955H20.7187C16.8895 47.3955 13.8562 47.3955 11.4833 47.0768C9.04162 46.7476 7.06453 46.0559 5.50412 44.4976C3.94578 42.9372 3.25412 40.9601 2.92495 38.5184C2.6062 36.1434 2.6062 33.1122 2.6062 29.283V24.883C2.6062 21.0538 2.6062 18.0205 2.92495 15.6476C3.25412 13.2059 3.94578 11.2288 5.50412 9.66842C7.06453 8.11009 9.04162 7.41842 11.4833 7.08926C11.9694 7.02537 12.4826 6.97259 13.0229 6.93092V5.20801C13.0229 4.79397 13.1872 4.39686 13.4798 4.10389C13.7724 3.81092 14.1692 3.64606 14.5833 3.64551ZM11.8958 10.1872C9.80203 10.4684 8.5937 10.9976 7.71245 11.8788C6.8312 12.7601 6.30203 13.9684 6.02078 16.0622C5.97356 16.4163 5.93328 16.7906 5.89995 17.1851H44.0999C44.0666 16.7906 44.0263 16.4156 43.9791 16.0601C43.6979 13.9663 43.1687 12.758 42.2875 11.8768C41.4062 10.9955 40.1979 10.4663 38.102 10.1851C35.9625 9.89759 33.1395 9.89342 29.1666 9.89342H20.8333C16.8604 9.89342 14.0395 9.89967 11.8958 10.1872ZM5.72912 24.9997C5.72912 23.2205 5.72912 21.6726 5.7562 20.3122H44.2437C44.2708 21.6726 44.2708 23.2205 44.2708 24.9997V29.1663C44.2708 33.1393 44.2666 35.9622 43.9791 38.1038C43.6979 40.1976 43.1687 41.4059 42.2875 42.2872C41.4062 43.1684 40.1979 43.6976 38.102 43.9788C35.9625 44.2663 33.1395 44.2705 29.1666 44.2705H20.8333C16.8604 44.2705 14.0395 44.2663 11.8958 43.9788C9.80203 43.6976 8.5937 43.1684 7.71245 42.2872C6.8312 41.4059 6.30203 40.1976 6.02078 38.1018C5.73328 35.9622 5.72912 33.1393 5.72912 29.1663V24.9997Z" fill="#00295D"/>
</svg>
