<svg width="40" height="40" viewBox="0 0 40 40" fill="none" xmlns="http://www.w3.org/2000/svg">
<g clip-path="url(#clip0_1_2604)">
<path d="M0.853564 19.7608C0.852627 23.1216 1.73763 26.4031 3.42044 29.2955L0.692627 39.178L10.8851 36.5262C13.7043 38.049 16.8629 38.8469 20.0726 38.8472H20.0811C30.6772 38.8472 39.3026 30.2917 39.3072 19.7759C39.3092 14.6802 37.3111 9.88857 33.6808 6.28361C30.0511 2.67896 25.2237 0.692755 20.0803 0.69043C9.48294 0.69043 0.858096 9.24547 0.853721 19.7608" fill="url(#paint0_linear_1_2604)"/>
<path d="M0.167188 19.7544C0.166094 23.2361 1.08281 26.635 2.82562 29.631L0 39.8678L10.558 37.1209C13.467 38.6947 16.7423 39.5245 20.0752 39.5257H20.0837C31.06 39.5257 39.9953 30.6625 40 19.7702C40.0019 14.4915 37.9319 9.5276 34.1719 5.79349C30.4114 2.05984 25.4114 0.00217054 20.0837 0C9.10562 0 0.171563 8.86202 0.167188 19.7544ZM6.45484 29.115L6.06062 28.4941C4.40344 25.8795 3.52875 22.8581 3.53 19.7557C3.53344 10.7022 10.9591 3.33643 20.09 3.33643C24.5119 3.33829 28.6675 5.04868 31.7931 8.15194C34.9186 11.2555 36.6384 15.3811 36.6373 19.769C36.6333 28.8225 29.2075 36.1891 20.0837 36.1891H20.0772C17.1064 36.1876 14.1928 35.396 11.6519 33.9L11.0472 33.5442L4.78188 35.1741L6.45484 29.115Z" fill="url(#paint1_linear_1_2604)"/>
<path d="M15.1059 11.4955C14.7331 10.6734 14.3408 10.6568 13.9862 10.6423C13.6959 10.6299 13.3641 10.6309 13.0325 10.6309C12.7006 10.6309 12.1614 10.7548 11.7056 11.2485C11.2494 11.7428 9.96375 12.9372 9.96375 15.3665C9.96375 17.7958 11.747 20.1437 11.9956 20.4735C12.2445 20.8027 15.4383 25.9475 20.4964 27.9267C24.7002 29.5715 25.5556 29.2444 26.468 29.1619C27.3805 29.0797 29.4123 27.9678 29.8269 26.8148C30.2417 25.6619 30.2417 24.6737 30.1173 24.4672C29.993 24.2614 29.6611 24.1379 29.1634 23.891C28.6658 23.6442 26.2191 22.4495 25.763 22.2847C25.3067 22.12 24.975 22.0379 24.6431 22.5323C24.3112 23.0259 23.3583 24.1379 23.0678 24.4672C22.7777 24.7972 22.4872 24.8383 21.9897 24.5913C21.4917 24.3436 19.8891 23.8228 17.9877 22.1408C16.5083 20.832 15.5095 19.2157 15.2192 18.7213C14.9289 18.2276 15.1881 17.96 15.4377 17.714C15.6612 17.4927 15.9355 17.1374 16.1845 16.8492C16.4327 16.5608 16.5155 16.3551 16.6814 16.0258C16.8475 15.6961 16.7644 15.4078 16.6402 15.1608C16.5155 14.9138 15.5484 12.4718 15.1059 11.4955Z" fill="white"/>
</g>
<defs>
<linearGradient id="paint0_linear_1_2604" x1="1931.42" y1="3849.45" x2="1931.42" y2="0.69043" gradientUnits="userSpaceOnUse">
<stop stop-color="#1FAF38"/>
<stop offset="1" stop-color="#60D669"/>
</linearGradient>
<linearGradient id="paint1_linear_1_2604" x1="2000" y1="3986.78" x2="2000" y2="0" gradientUnits="userSpaceOnUse">
<stop stop-color="#F9F9F9"/>
<stop offset="1" stop-color="white"/>
</linearGradient>
<clipPath id="clip0_1_2604">
<rect width="40" height="40" fill="white"/>
</clipPath>
</defs>
</svg>
