<svg width="84" height="61" viewBox="0 0 84 61" fill="none" xmlns="http://www.w3.org/2000/svg">
<g clip-path="url(#clip0_1_680)" filter="url(#filter0_d_1_680)">
<path d="M77.713 8.26653C77.2807 6.66874 76.4373 5.21209 75.2669 4.04163C74.0965 2.87116 72.6399 2.02772 71.0421 1.5953C65.1927 0 41.6507 0 41.6507 0C41.6507 0 18.1075 0.0482888 12.258 1.64359C10.6602 2.07604 9.20361 2.91952 8.03319 4.09004C6.86278 5.26056 6.01942 6.71727 5.58711 8.31511C3.8178 18.7084 3.13145 34.5454 5.6357 44.5229C6.06805 46.1207 6.91142 47.5774 8.08184 48.7478C9.25225 49.9183 10.7089 50.7617 12.3066 51.1942C18.1561 52.7895 41.6987 52.7895 41.6987 52.7895C41.6987 52.7895 65.241 52.7895 71.0901 51.1942C72.6879 50.7618 74.1446 49.9184 75.3151 48.7479C76.4855 47.5774 77.329 46.1208 77.7613 44.5229C79.6275 34.1149 80.2026 18.2877 77.713 8.26653Z" fill="#FF0000"/>
<path d="M34.1572 37.7065L53.6871 26.3945L34.1572 15.0825V37.7065Z" fill="white"/>
</g>
<defs>
<filter id="filter0_d_1_680" x="0" y="0" width="83.3779" height="61" filterUnits="userSpaceOnUse" color-interpolation-filters="sRGB">
<feFlood flood-opacity="0" result="BackgroundImageFix"/>
<feColorMatrix in="SourceAlpha" type="matrix" values="0 0 0 0 0 0 0 0 0 0 0 0 0 0 0 0 0 0 127 0" result="hardAlpha"/>
<feOffset dy="4"/>
<feGaussianBlur stdDeviation="2"/>
<feComposite in2="hardAlpha" operator="out"/>
<feColorMatrix type="matrix" values="0 0 0 0 0 0 0 0 0 0 0 0 0 0 0 0 0 0 0.25 0"/>
<feBlend mode="normal" in2="BackgroundImageFix" result="effect1_dropShadow_1_680"/>
<feBlend mode="normal" in="SourceGraphic" in2="effect1_dropShadow_1_680" result="shape"/>
</filter>
<clipPath id="clip0_1_680">
<rect width="75.3778" height="53" fill="white" transform="translate(4)"/>
</clipPath>
</defs>
</svg>
