<svg width="41" height="40" viewBox="0 0 41 40" fill="none" xmlns="http://www.w3.org/2000/svg">
<path d="M23.2998 35H18.2998C17.6368 35 17.0009 34.7366 16.532 34.2678C16.0632 33.7989 15.7998 33.163 15.7998 32.5V23.0125L6.5373 13.75C6.06782 13.2833 5.8026 12.6495 5.7998 11.9875V7.5C5.7998 6.83696 6.0632 6.20107 6.53204 5.73223C7.00088 5.26339 7.63676 5 8.2998 5H33.2998C33.9628 5 34.5987 5.26339 35.0676 5.73223C35.5364 6.20107 35.7998 6.83696 35.7998 7.5V11.9875C35.797 12.6495 35.5318 13.2833 35.0623 13.75L25.7998 23.0125V32.5C25.7998 33.163 25.5364 33.7989 25.0676 34.2678C24.5987 34.7366 23.9628 35 23.2998 35ZM8.2998 7.5V11.9875L18.2998 21.9875V32.5H23.2998V21.9875L33.2998 11.9875V7.5H8.2998Z" fill="#00295D"/>
</svg>
