<svg width="40" height="40" viewBox="0 0 40 40" fill="none" xmlns="http://www.w3.org/2000/svg">
<path fill-rule="evenodd" clip-rule="evenodd" d="M34.8733 19.5833H30.3833C28.01 19.5833 26.2483 21.3483 26.2483 23.3333C26.2483 25.3183 28.01 27.0833 30.3817 27.0833H34.9117C35.255 27.0616 35.4033 26.83 35.415 26.69V19.9766C35.4033 19.8366 35.255 19.605 34.9117 19.585L34.8733 19.5833ZM34.75 17.0833C34.8611 17.0822 34.9667 17.0844 35.0667 17.09C36.5167 17.1783 37.8017 18.2733 37.91 19.8033C37.9167 19.9033 37.9167 20.0116 37.9167 20.1116V26.555C37.9167 26.655 37.9167 26.7633 37.91 26.8633C37.8017 28.3933 36.5167 29.4883 35.065 29.5783C34.9661 29.5827 34.8606 29.5844 34.7483 29.5833H30.385C26.81 29.5833 23.75 26.87 23.75 23.3333C23.75 19.7966 26.81 17.0833 30.3833 17.0833H34.75Z" fill="#00295D"/>
<path d="M31.6663 23.3337C31.6663 23.7757 31.4907 24.1996 31.1782 24.5122C30.8656 24.8247 30.4417 25.0003 29.9997 25.0003C29.5576 25.0003 29.1337 24.8247 28.8212 24.5122C28.5086 24.1996 28.333 23.7757 28.333 23.3337C28.333 22.8916 28.5086 22.4677 28.8212 22.1551C29.1337 21.8426 29.5576 21.667 29.9997 21.667C30.4417 21.667 30.8656 21.8426 31.1782 22.1551C31.4907 22.4677 31.6663 22.8916 31.6663 23.3337Z" fill="#00295D"/>
<path fill-rule="evenodd" clip-rule="evenodd" d="M34.7497 17.0835C34.8608 17.0824 34.9663 17.0846 35.0663 17.0902C35.4413 17.1119 35.8047 17.2019 36.1413 17.3502C35.963 14.6735 35.4713 12.6102 33.9313 11.0685C32.683 9.82187 31.1013 9.26854 29.148 9.0052L29.078 8.99687L29.0247 8.95854L22.798 4.8302C21.7177 4.12594 20.4559 3.75098 19.1663 3.75098C17.8767 3.75098 16.615 4.12594 15.5347 4.8302L9.30967 8.95854L9.25467 8.99687L9.18468 9.0052C7.23134 9.26854 5.64967 9.82187 4.40134 11.0685C3.15467 12.3169 2.60134 13.8985 2.33801 15.8519C2.08301 17.7519 2.08301 20.1769 2.08301 23.2402V23.4269C2.08301 26.4902 2.08301 28.9169 2.33801 30.8152C2.60134 32.7685 3.15467 34.3502 4.40134 35.5985C5.64967 36.8452 7.23134 37.3985 9.18468 37.6619C11.0847 37.9169 13.5097 37.9169 16.573 37.9169H21.7597C24.823 37.9169 27.2497 37.9169 29.148 37.6619C31.1013 37.3985 32.683 36.8452 33.9313 35.5985C35.4713 34.0569 35.963 31.9935 36.1413 29.3152C35.8025 29.4663 35.4436 29.5541 35.0647 29.5785C34.9658 29.583 34.8602 29.5846 34.748 29.5835H33.613C33.423 31.8202 32.9947 33.0002 32.163 33.8302C31.458 34.5352 30.4913 34.9585 28.8147 35.1835C27.103 35.4135 24.8447 35.4169 21.6663 35.4169H16.6663C13.488 35.4169 11.2313 35.4135 9.51634 35.1835C7.84134 34.9585 6.87467 34.5352 6.16967 33.8302C5.46467 33.1252 5.04134 32.1585 4.81634 30.4819C4.58634 28.7702 4.58301 26.5119 4.58301 23.3335C4.58301 20.1552 4.58634 17.8985 4.81634 16.1835C5.04134 14.5085 5.46467 13.5419 6.16967 12.8369C6.87467 12.1319 7.84134 11.7085 9.51801 11.4835C11.2313 11.2535 13.488 11.2502 16.6663 11.2502H21.6663C24.8447 11.2502 27.103 11.2535 28.8163 11.4835C30.4913 11.7085 31.458 12.1319 32.163 12.8369C32.9947 13.6669 33.423 14.8485 33.613 17.0835H34.7497ZM16.573 8.7502H21.7597C22.6208 8.7502 23.4319 8.75187 24.193 8.7552L21.4163 6.91354C20.083 6.0302 18.2497 6.0302 16.9163 6.91354L14.138 8.7552C14.9002 8.75076 15.7113 8.74909 16.5713 8.7502" fill="#00295D"/>
<path d="M10 15.417C9.66848 15.417 9.35054 15.5487 9.11612 15.7831C8.8817 16.0175 8.75 16.3355 8.75 16.667C8.75 16.9985 8.8817 17.3165 9.11612 17.5509C9.35054 17.7853 9.66848 17.917 10 17.917H16.6667C16.9982 17.917 17.3161 17.7853 17.5505 17.5509C17.785 17.3165 17.9167 16.9985 17.9167 16.667C17.9167 16.3355 17.785 16.0175 17.5505 15.7831C17.3161 15.5487 16.9982 15.417 16.6667 15.417H10Z" fill="#00295D"/>
<path d="M31.6663 23.3337C31.6663 23.7757 31.4907 24.1996 31.1782 24.5122C30.8656 24.8247 30.4417 25.0003 29.9997 25.0003C29.5576 25.0003 29.1337 24.8247 28.8212 24.5122C28.5086 24.1996 28.333 23.7757 28.333 23.3337C28.333 22.8916 28.5086 22.4677 28.8212 22.1551C29.1337 21.8426 29.5576 21.667 29.9997 21.667C30.4417 21.667 30.8656 21.8426 31.1782 22.1551C31.4907 22.4677 31.6663 22.8916 31.6663 23.3337Z" fill="#00295D"/>
</svg>
