<svg width="40" height="40" viewBox="0 0 40 40" fill="none" xmlns="http://www.w3.org/2000/svg">
<path d="M20 29.9997C19.1267 29.9999 18.2808 29.6953 17.608 29.1385C16.9353 28.5817 16.478 27.8076 16.315 26.9497C13.8628 26.1918 11.7034 24.6975 10.13 22.6697C8.94221 21.1401 8.12606 19.3555 7.74592 17.4566C7.36578 15.5577 7.43205 13.5964 7.9395 11.7275C8.44695 9.85859 9.3817 8.13314 10.67 6.68725C11.9584 5.24136 13.565 4.11459 15.3633 3.39581C17.1615 2.67703 19.1022 2.3859 21.0322 2.5454C22.9622 2.70489 24.8288 3.31064 26.4846 4.31486C28.1405 5.31908 29.5404 6.69431 30.5739 8.33207C31.6074 9.96983 32.2462 11.8253 32.44 13.7522C32.5075 14.4397 31.94 14.9997 31.25 14.9997C30.56 14.9997 30.0075 14.4372 29.925 13.7522C29.7019 11.9843 29.0104 10.3081 27.9221 8.89706C26.8338 7.48604 25.3883 6.39144 23.7351 5.72654C22.0818 5.06163 20.2809 4.85057 18.5187 5.11518C16.7565 5.37979 15.0971 6.11048 13.712 7.23162C12.327 8.35276 11.2666 9.82364 10.6408 11.4921C10.0149 13.1605 9.84625 14.9658 10.1522 16.7213C10.4582 18.4768 11.2277 20.1186 12.381 21.477C13.5344 22.8353 15.0298 23.8607 16.7125 24.4472C17.0306 23.8668 17.4967 23.381 18.0633 23.039C18.6299 22.6971 19.277 22.5112 19.9387 22.5002C20.6005 22.4892 21.2533 22.6536 21.831 22.9766C22.4086 23.2996 22.8905 23.7697 23.2277 24.3392C23.5649 24.9087 23.7454 25.5572 23.7508 26.219C23.7562 26.8809 23.5863 27.5323 23.2585 28.1072C22.9307 28.6822 22.4565 29.1601 21.8842 29.4925C21.3119 29.8248 20.6618 29.9998 20 29.9997ZM10 26.2497V26.1822C9.31642 25.57 8.69046 24.8963 8.13 24.1697C7.71929 24.7856 7.50008 25.5094 7.5 26.2497V27.4997C7.5 32.4272 12.15 37.4997 20 37.4997C27.85 37.4997 32.5 32.4272 32.5 27.4997V26.2497C32.5 25.2551 32.1049 24.3013 31.4017 23.598C30.6984 22.8948 29.7446 22.4997 28.75 22.4997H25C25.5475 23.2247 25.9375 24.0747 26.125 24.9997H28.75C29.0815 24.9997 29.3995 25.1314 29.6339 25.3658C29.8683 25.6002 30 25.9182 30 26.2497V27.4997C30 31.0947 26.42 34.9997 20 34.9997C13.58 34.9997 10 31.0947 10 27.4997V26.2497ZM20 19.9997C18.5695 19.9996 17.1823 20.4903 16.07 21.3897C14.977 20.7201 14.0745 19.7806 13.4493 18.6616C12.8242 17.5425 12.4972 16.2815 12.5 14.9997C12.5004 13.6921 12.8426 12.4074 13.4927 11.2729C14.1428 10.1384 15.0782 9.1936 16.2061 8.53216C17.334 7.87073 18.6153 7.51567 19.9227 7.5022C21.2302 7.48873 22.5185 7.81732 23.6598 8.45537C24.8011 9.09343 25.7558 10.0188 26.4291 11.1396C27.1025 12.2605 27.4711 13.5379 27.4984 14.8452C27.5257 16.1524 27.2107 17.4441 26.5848 18.5921C25.9589 19.7401 25.0437 20.7045 23.93 21.3897C22.8177 20.4903 21.4305 19.9996 20 19.9997ZM15 14.9997C15 16.3258 15.5268 17.5975 16.4645 18.5352C17.4021 19.4729 18.6739 19.9997 20 19.9997C21.3261 19.9997 22.5979 19.4729 23.5355 18.5352C24.4732 17.5975 25 16.3258 25 14.9997C25 13.6736 24.4732 12.4018 23.5355 11.4642C22.5979 10.5265 21.3261 9.99969 20 9.99969C18.6739 9.99969 17.4021 10.5265 16.4645 11.4642C15.5268 12.4018 15 13.6736 15 14.9997Z" fill="#00295D"/>
</svg>
