<svg width="40" height="40" viewBox="0 0 40 40" fill="none" xmlns="http://www.w3.org/2000/svg">
<path d="M19.9996 12.4996C18.5162 12.4996 17.0662 12.9395 15.8328 13.7636C14.5994 14.5877 13.6381 15.759 13.0705 17.1295C12.5028 18.4999 12.3543 20.0079 12.6437 21.4628C12.9331 22.9176 13.6474 24.254 14.6963 25.3029C15.7452 26.3518 17.0815 27.0661 18.5364 27.3555C19.9913 27.6449 21.4993 27.4963 22.8697 26.9287C24.2402 26.361 25.4115 25.3997 26.2356 24.1664C27.0597 22.933 27.4996 21.4829 27.4996 19.9996C27.4975 18.0111 26.7067 16.1046 25.3006 14.6986C23.8945 13.2925 21.9881 12.5017 19.9996 12.4996ZM19.9996 24.9996C19.0107 24.9996 18.044 24.7063 17.2217 24.1569C16.3995 23.6075 15.7586 22.8266 15.3802 21.913C15.0017 20.9994 14.9027 19.994 15.0957 19.0241C15.2886 18.0542 15.7648 17.1633 16.464 16.464C17.1633 15.7648 18.0542 15.2886 19.0241 15.0957C19.994 14.9027 20.9994 15.0017 21.913 15.3802C22.8266 15.7586 23.6075 16.3995 24.1569 17.2217C24.7063 18.044 24.9996 19.0107 24.9996 19.9996C24.9996 21.3257 24.4728 22.5974 23.5351 23.5351C22.5974 24.4728 21.3257 24.9996 19.9996 24.9996ZM33.7496 20.3371C33.7558 20.1121 33.7558 19.8871 33.7496 19.6621L36.0808 16.7496C36.2031 16.5967 36.2877 16.4172 36.3278 16.2256C36.368 16.034 36.3626 15.8356 36.3121 15.6465C35.9299 14.2099 35.3582 12.8306 34.6121 11.5449C34.5144 11.3766 34.3788 11.2335 34.216 11.1269C34.0533 11.0203 33.8679 10.9532 33.6746 10.9308L29.9683 10.5183C29.8142 10.3558 29.6579 10.1996 29.4996 10.0496L29.0621 6.33396C29.0396 6.14054 28.9722 5.95505 28.8653 5.79229C28.7584 5.62952 28.615 5.49398 28.4465 5.39646C27.1603 4.65167 25.7811 4.08056 24.3449 3.69802C24.1556 3.6477 23.9572 3.64256 23.7656 3.683C23.574 3.72344 23.3946 3.80833 23.2418 3.93083L20.3371 6.24958H19.6621L16.7496 3.92302C16.5967 3.80078 16.4172 3.71617 16.2256 3.67601C16.034 3.63584 15.8356 3.64124 15.6465 3.69177C14.2101 4.07463 12.8309 4.64628 11.5449 5.39177C11.3766 5.48947 11.2335 5.62509 11.1269 5.78785C11.0203 5.9506 10.9532 6.136 10.9308 6.32927L10.5183 10.0418C10.3558 10.197 10.1996 10.3532 10.0496 10.5105L6.33396 10.9371C6.14054 10.9596 5.95505 11.027 5.79229 11.1338C5.62952 11.2407 5.49398 11.3842 5.39646 11.5527C4.65167 12.8389 4.08056 14.2181 3.69802 15.6543C3.6477 15.8435 3.64256 16.042 3.683 16.2336C3.72344 16.4252 3.80833 16.6046 3.93083 16.7574L6.24958 19.6621V20.3371L3.92302 23.2496C3.80078 23.4025 3.71617 23.582 3.67601 23.7736C3.63584 23.9652 3.64124 24.1636 3.69177 24.3527C4.07392 25.7893 4.64561 27.1686 5.39177 28.4543C5.48947 28.6225 5.62509 28.7656 5.78785 28.8723C5.9506 28.9789 6.136 29.046 6.32927 29.0683L10.0355 29.4808C10.1907 29.6433 10.347 29.7996 10.5043 29.9496L10.9371 33.6652C10.9596 33.8586 11.027 34.0441 11.1338 34.2069C11.2407 34.3696 11.3842 34.5052 11.5527 34.6027C12.8389 35.3475 14.2181 35.9186 15.6543 36.3011C15.8435 36.3515 16.042 36.3566 16.2336 36.3162C16.4252 36.2757 16.6046 36.1908 16.7574 36.0683L19.6621 33.7496C19.8871 33.7558 20.1121 33.7558 20.3371 33.7496L23.2496 36.0808C23.4025 36.2031 23.582 36.2877 23.7736 36.3278C23.9652 36.368 24.1636 36.3626 24.3527 36.3121C25.7893 35.9299 27.1686 35.3582 28.4543 34.6121C28.6225 34.5144 28.7656 34.3788 28.8723 34.216C28.9789 34.0533 29.046 33.8679 29.0683 33.6746L29.4808 29.9683C29.6433 29.8142 29.7996 29.6579 29.9496 29.4996L33.6652 29.0621C33.8586 29.0396 34.0441 28.9722 34.2069 28.8653C34.3696 28.7584 34.5052 28.615 34.6027 28.4465C35.3475 27.1603 35.9186 25.7811 36.3011 24.3449C36.3515 24.1556 36.3566 23.9572 36.3162 23.7656C36.2757 23.574 36.1908 23.3946 36.0683 23.2418L33.7496 20.3371ZM31.234 19.3215C31.2605 19.7732 31.2605 20.226 31.234 20.6777C31.2153 20.987 31.3122 21.2921 31.5058 21.534L33.723 24.3043C33.4686 25.1128 33.1428 25.8971 32.7496 26.648L29.2183 27.048C28.9108 27.0822 28.6269 27.2291 28.4215 27.4605C28.1207 27.7988 27.8004 28.1192 27.4621 28.4199C27.2307 28.6253 27.0837 28.9092 27.0496 29.2168L26.6574 32.7449C25.9066 33.1384 25.1223 33.4641 24.3136 33.7183L21.5418 31.5011C21.32 31.3239 21.0444 31.2275 20.7605 31.2277H20.6855C20.2338 31.2542 19.781 31.2542 19.3293 31.2277C19.02 31.2091 18.7149 31.306 18.473 31.4996L15.6949 33.7183C14.8864 33.4639 14.102 33.1381 13.3511 32.7449L12.9511 29.2183C12.917 28.9108 12.77 28.6269 12.5386 28.4215C12.2004 28.1207 11.88 27.8004 11.5793 27.4621C11.3739 27.2307 11.0899 27.0837 10.7824 27.0496L7.25427 26.6558C6.86081 25.9051 6.53504 25.1207 6.28083 24.3121L8.49802 21.5402C8.69162 21.2983 8.78851 20.9932 8.7699 20.684C8.74336 20.2323 8.74336 19.7794 8.7699 19.3277C8.78851 19.0185 8.69162 18.7133 8.49802 18.4715L6.28083 15.6949C6.53527 14.8864 6.86103 14.102 7.25427 13.3511L10.7808 12.9511C11.0884 12.917 11.3723 12.77 11.5777 12.5386C11.8784 12.2004 12.1988 11.88 12.5371 11.5793C12.7694 11.3737 12.917 11.0891 12.9511 10.7808L13.3433 7.25427C14.0941 6.86081 14.8785 6.53504 15.6871 6.28083L18.459 8.49802C18.7008 8.69162 19.006 8.78851 19.3152 8.7699C19.7669 8.74336 20.2198 8.74336 20.6715 8.7699C20.9807 8.78851 21.2858 8.69162 21.5277 8.49802L24.3043 6.28083C25.1128 6.53527 25.8971 6.86103 26.648 7.25427L27.048 10.7808C27.0822 11.0884 27.2291 11.3723 27.4605 11.5777C27.7988 11.8784 28.1192 12.1988 28.4199 12.5371C28.6253 12.7685 28.9092 12.9154 29.2168 12.9496L32.7449 13.3418C33.1384 14.0925 33.4641 14.8769 33.7183 15.6855L31.5011 18.4574C31.3057 18.7013 31.2087 19.0096 31.2293 19.3215H31.234Z" fill="#00295D"/>
</svg>
