<svg width="40" height="40" viewBox="0 0 40 40" fill="none" xmlns="http://www.w3.org/2000/svg">
<path d="M26.25 21.667C26.25 21.3355 26.1183 21.0175 25.8839 20.7831C25.6495 20.5487 25.3315 20.417 25 20.417H15C14.6685 20.417 14.3505 20.5487 14.1161 20.7831C13.8817 21.0175 13.75 21.3355 13.75 21.667C13.75 21.9985 13.8817 22.3165 14.1161 22.5509C14.3505 22.7853 14.6685 22.917 15 22.917H25C25.3315 22.917 25.6495 22.7853 25.8839 22.5509C26.1183 22.3165 26.25 21.9985 26.25 21.667ZM26.25 28.3337C26.25 28.0021 26.1183 27.6842 25.8839 27.4498C25.6495 27.2154 25.3315 27.0837 25 27.0837H15C14.6685 27.0837 14.3505 27.2154 14.1161 27.4498C13.8817 27.6842 13.75 28.0021 13.75 28.3337C13.75 28.6652 13.8817 28.9831 14.1161 29.2175C14.3505 29.452 14.6685 29.5837 15 29.5837H25C25.3315 29.5837 25.6495 29.452 25.8839 29.2175C26.1183 28.9831 26.25 28.6652 26.25 28.3337Z" fill="#00295D"/>
<path fill-rule="evenodd" clip-rule="evenodd" d="M11.6668 3.75C10.4513 3.75 9.28546 4.23289 8.42592 5.09243C7.56638 5.95197 7.0835 7.11776 7.0835 8.33333V31.6667C7.0835 32.8822 7.56638 34.048 8.42592 34.9076C9.28546 35.7671 10.4513 36.25 11.6668 36.25H28.3335C29.5491 36.25 30.7149 35.7671 31.5744 34.9076C32.4339 34.048 32.9168 32.8822 32.9168 31.6667V13.28C32.9168 12.645 32.7102 12.0283 32.3268 11.5217L27.3302 4.90833C27.0583 4.54853 26.7067 4.25667 26.303 4.05568C25.8993 3.85469 25.4545 3.75006 25.0035 3.75H11.6668ZM9.5835 8.33333C9.5835 7.18333 10.5168 6.25 11.6668 6.25H23.7502V13.5783C23.7502 14.2683 24.3102 14.8283 25.0002 14.8283H30.4168V31.6667C30.4168 32.8167 29.4835 33.75 28.3335 33.75H11.6668C10.5168 33.75 9.5835 32.8167 9.5835 31.6667V8.33333Z" fill="#00295D"/>
</svg>
