<svg width="42" height="42" viewBox="0 0 42 42" fill="none" xmlns="http://www.w3.org/2000/svg">
<path d="M36.4344 28.432C34.6913 27.423 32.5667 27.6938 31.1352 28.957L28.9614 27.6979V21.4758C28.9614 20.8318 28.6169 20.233 28.059 19.9131L22.4809 16.7016V13.9494C24.2938 13.3342 25.5981 11.6197 25.5981 9.59766C25.5981 7.05879 23.5432 5.00391 21.0044 5.00391C18.4655 5.00391 16.4106 7.05879 16.4106 9.59766C16.4106 11.6197 17.7149 13.3342 19.5278 13.9494V16.7016L13.9497 19.9131C13.3919 20.233 13.0473 20.8318 13.0473 21.4758V27.6938L10.8735 28.9529C9.44205 27.6896 7.31334 27.4189 5.57428 28.4279C3.37994 29.6994 2.63346 32.5049 3.89264 34.6992C5.15592 36.8936 7.94909 37.6482 10.1352 36.3809C11.8784 35.3719 12.7069 33.3867 12.3337 31.5082L14.3311 30.3475L20.0979 33.6697C20.3768 33.8297 20.6885 33.9117 21.0003 33.9117C21.312 33.9117 21.6237 33.8297 21.9026 33.6697L27.6653 30.3516L29.6628 31.5123C29.2895 33.3867 30.1221 35.376 31.8612 36.385C34.0473 37.6523 36.8446 36.9018 38.1038 34.7033C39.3671 32.5049 38.6206 29.6994 36.4344 28.432ZM8.83092 34.1086C8.60814 34.2376 8.36204 34.3213 8.10679 34.3549C7.85154 34.3884 7.59217 34.3711 7.34362 34.304C7.09507 34.2369 6.86225 34.1214 6.65854 33.9639C6.45484 33.8065 6.28429 33.6103 6.1567 33.3867C5.6153 32.4475 5.93522 31.2416 6.87448 30.7002C7.09725 30.5712 7.34335 30.4875 7.5986 30.4539C7.85386 30.4204 8.11322 30.4377 8.36177 30.5048C8.61032 30.5718 8.84315 30.6874 9.04685 30.8449C9.25055 31.0023 9.42111 31.1985 9.54869 31.4221C10.0901 32.3613 9.77018 33.5672 8.83092 34.1086ZM19.0315 9.59766C19.042 9.08247 19.2541 8.59193 19.6221 8.2313C19.9902 7.87067 20.485 7.66869 21.0003 7.66869C21.5156 7.66869 22.0103 7.87067 22.3784 8.2313C22.7464 8.59193 22.9585 9.08247 22.969 9.59766C22.9585 10.1128 22.7464 10.6034 22.3784 10.964C22.0103 11.3246 21.5156 11.5266 21.0003 11.5266C20.485 11.5266 19.9902 11.3246 19.6221 10.964C19.2541 10.6034 19.042 10.1128 19.0315 9.59766ZM26.0042 27.8988L21.0003 30.7822L15.9964 27.8988V22.1402L21.0003 19.2568L26.0042 22.1402V27.8988ZM35.8438 33.3908C35.3024 34.3301 34.1047 34.6541 33.1696 34.1127C32.2344 33.5713 31.9104 32.3654 32.4518 31.4262C32.9932 30.4869 34.1909 30.1629 35.126 30.7043C36.0653 31.2457 36.3852 32.4475 35.8438 33.3908Z" fill="#00295D"/>
</svg>
