<svg width="41" height="41" viewBox="0 0 41 41" fill="none" xmlns="http://www.w3.org/2000/svg">
<path d="M19.1596 2.14062L17.9706 4.85547C17.3551 4.89298 16.7427 4.97048 16.1372 5.0875L14.3183 2.73875L12.3579 3.40531L12.3481 6.39359C11.5176 6.82047 10.7218 7.33656 9.96996 7.93891L7.19926 6.69141L5.78074 8.20023L7.19918 10.8906C6.74664 11.5358 6.34895 12.2177 6.01027 12.9292L2.96824 13.0122L2.35059 14.9872L4.80668 16.7964C4.6891 17.5292 4.63168 18.2697 4.6284 19.0108L1.90137 20.3926L2.18699 22.4434L5.1802 23.0293C5.35922 23.6558 5.5811 24.2692 5.84426 24.8652L3.87168 27.3141L4.9727 29.0669L8.0391 28.3491C8.23313 28.5775 8.43422 28.7997 8.64207 29.0155C9.07613 29.4646 9.53853 29.8854 10.0264 30.2753L9.43074 33.3466L11.2228 34.3818L13.564 32.3432C14.234 32.6125 14.9237 32.8296 15.6271 32.9926L16.3913 35.993L18.4542 36.1616L19.6944 33.3319C20.5514 33.2803 21.4057 33.1522 22.2457 32.9461L24.216 35.2289L26.1373 34.4598L26.0811 33.3026L21.5962 29.9018C20.2906 30.2319 18.9367 30.3202 17.6069 30.1702C15.1261 29.8905 12.7421 28.7702 10.8711 26.8354C6.59473 22.4124 6.71699 15.3768 11.1397 11.1005C13.2819 9.02922 16.0374 7.97844 18.796 7.94867C21.7327 7.91695 24.6721 9.04211 26.8771 11.3227C30.4657 15.0345 30.9549 20.6184 28.4053 24.8457L30.903 26.7402C31.2136 26.2533 31.4941 25.7478 31.7428 25.2266L34.7628 25.1435L35.3804 23.1685L32.9416 21.3716C33.0593 20.6328 33.1189 19.8859 33.1197 19.1377L35.8297 17.7608L35.5442 15.71L32.5536 15.1241C32.3019 14.2578 31.9684 13.4174 31.5575 12.6143L33.3395 10.146L32.1481 8.45406L29.2137 9.30609C29.1768 9.26703 29.1411 9.22742 29.1037 9.18891C28.6418 8.71104 28.1475 8.26561 27.6243 7.85578L28.1858 4.95539L26.3936 3.92031L24.167 5.85891C23.4462 5.56883 22.7059 5.34305 21.955 5.17531L21.2251 2.30906L19.1596 2.14062ZM14.6162 14.1328C13.8081 14.142 13.0071 14.3405 12.2725 14.7016L15.8053 17.3823C16.8737 18.193 17.1768 19.7335 16.3568 20.8149C15.5367 21.897 13.9618 22.0596 12.8779 21.2374L9.34762 18.5591C8.98613 20.4961 9.67066 22.5484 11.3471 23.8204C12.8507 24.9608 14.7803 25.1743 16.4425 24.5773L16.8159 24.4429L17.1307 24.6822L27.6925 32.695L28.0073 32.9342L27.9804 33.3298C27.8525 35.0915 28.5734 36.893 30.0776 38.0342C31.7542 39.3061 33.9171 39.4116 35.6854 38.542L32.1553 35.8639C31.0714 35.0416 30.8051 33.4806 31.6256 32.3995C32.4459 31.3183 34.0113 31.196 35.08 32.0064L38.6103 34.6848C38.971 32.7485 38.2893 30.6952 36.6132 29.4235C35.1044 28.2784 33.19 28.0515 31.5376 28.6397L31.1665 28.7716L30.8517 28.5323L20.29 20.5196L19.9751 20.2803L20.002 19.8873C20.1231 18.1384 19.3887 16.3566 17.8804 15.212C16.9004 14.4685 15.7536 14.1199 14.6163 14.1329L14.6162 14.1328ZM18.0196 21.1836L30.8223 30.898L29.9409 32.0625L17.1357 22.3457L18.0196 21.1836Z" fill="#00295D"/>
</svg>
