<svg width="45" height="45" viewBox="0 0 45 45" fill="none" xmlns="http://www.w3.org/2000/svg">
<path d="M6.5625 31.8749H16.4137C15.5225 31.3199 14.7175 30.6455 13.9987 29.8518C13.2812 29.0593 12.7031 28.1712 12.2644 27.1874H6.5625V31.8749ZM22.5 31.8749C25.0938 31.8749 27.305 30.9605 29.1338 29.1318C30.9625 27.303 31.8762 25.0924 31.875 22.4999C31.8738 19.9074 30.9594 17.6968 29.1319 15.868C27.3044 14.0393 25.0938 13.1249 22.5 13.1249C19.9062 13.1249 17.6956 14.0393 15.8681 15.868C14.0406 17.6968 13.1263 19.9074 13.125 22.4999C13.1237 25.0924 14.0381 27.3037 15.8681 29.1337C17.6981 30.9637 19.9088 31.8774 22.5 31.8749ZM32.7375 17.8124H38.4375V13.1249H28.5863C29.4788 13.6799 30.2838 14.3543 31.0013 15.148C31.7188 15.9405 32.2975 16.8287 32.7375 17.8124ZM4.6875 35.1937V23.8687H6.5625V25.3124H11.6438C11.5087 24.8562 11.4094 24.3955 11.3456 23.9305C11.2819 23.4655 11.25 22.9887 11.25 22.4999C11.25 19.3662 12.3419 16.708 14.5256 14.5255C16.7081 12.3418 19.3663 11.2499 22.5 11.2499H38.4375V9.80615H40.3125V21.1312H38.4375V19.6874H33.3563C33.4913 20.1449 33.5906 20.6062 33.6544 21.0712C33.7181 21.5362 33.75 22.0124 33.75 22.4999C33.75 25.6337 32.6581 28.2924 30.4744 30.4762C28.2919 32.6587 25.6338 33.7499 22.5 33.7499H6.5625V35.1937H4.6875ZM22.5 26.6474C21.7087 26.6474 21.0425 26.3762 20.5013 25.8337C19.96 25.2912 19.6888 24.6249 19.6875 23.8349C19.6875 23.3324 19.8 22.8199 20.025 22.2974C20.25 21.7749 20.6519 21.073 21.2306 20.1918L22.4644 18.3543L23.7337 20.1918C24.3512 21.1193 24.7688 21.8318 24.9862 22.3293C25.2038 22.8268 25.3125 23.3287 25.3125 23.8349C25.3125 24.6249 25.0413 25.2912 24.4988 25.8337C23.9575 26.3762 23.2913 26.6474 22.5 26.6474Z" fill="#00295D"/>
</svg>
