<svg width="76" height="53" viewBox="0 0 76 53" fill="none" xmlns="http://www.w3.org/2000/svg">
<g clip-path="url(#clip0_1_1269)">
<path d="M73.713 8.26653C73.2807 6.66874 72.4373 5.21209 71.2669 4.04163C70.0965 2.87116 68.6399 2.02772 67.0421 1.5953C61.1927 0 37.6507 0 37.6507 0C37.6507 0 14.1075 0.0482888 8.25805 1.64359C6.66024 2.07604 5.20361 2.91952 4.03319 4.09004C2.86278 5.26056 2.01942 6.71727 1.58711 8.31511C-0.182205 18.7084 -0.868555 34.5454 1.6357 44.5229C2.06805 46.1207 2.91142 47.5774 4.08184 48.7478C5.25225 49.9183 6.70886 50.7617 8.30663 51.1942C14.1561 52.7895 37.6987 52.7895 37.6987 52.7895C37.6987 52.7895 61.241 52.7895 67.0901 51.1942C68.6879 50.7618 70.1446 49.9184 71.3151 48.7479C72.4855 47.5774 73.329 46.1208 73.7613 44.5229C75.6275 34.1149 76.2026 18.2877 73.713 8.26653Z" fill="#FF0000"/>
<path d="M30.1572 37.7065L49.6871 26.3945L30.1572 15.0825V37.7065Z" fill="white"/>
</g>
<defs>
<clipPath id="clip0_1_1269">
<rect width="75.3778" height="53" fill="white"/>
</clipPath>
</defs>
</svg>
