<svg width="30" height="30" viewBox="0 0 30 30" fill="none" xmlns="http://www.w3.org/2000/svg">
<path d="M16.25 2.53748V5.06248C21.7375 5.73748 25.625 10.725 24.95 16.2125C24.375 20.7625 20.8 24.375 16.25 24.9125V27.4125C23.125 26.725 28.125 20.625 27.4375 13.75C26.875 7.81248 22.1625 3.12498 16.25 2.53748ZM13.75 2.57498C11.3125 2.81248 8.9875 3.74998 7.0875 5.32498L8.875 7.17498C10.275 6.04998 11.9625 5.32498 13.75 5.07498V2.57498ZM5.325 7.08748C3.76305 8.98475 2.80137 11.3041 2.5625 13.75H5.0625C5.3 11.975 6 10.2875 7.1125 8.87498L5.325 7.08748ZM2.575 16.25C2.825 18.7 3.7875 21.0125 5.3375 22.9125L7.1125 21.125C6.00856 19.712 5.30482 18.0283 5.075 16.25H2.575ZM8.875 22.9625L7.0875 24.675C8.98121 26.253 11.2992 27.2358 13.75 27.5V25C11.9717 24.7702 10.2879 24.0664 8.875 22.9625ZM21.025 18.9875L15.8875 13.85C16.4 12.55 16.1125 11.025 15.0375 9.96247C13.9125 8.82498 12.225 8.59998 10.8625 9.22498L13.2875 11.65L11.6 13.35L9.1125 10.9125C8.4375 12.275 8.75 13.9625 9.85 15.1C10.925 16.175 12.45 16.45 13.75 15.95L18.8875 21.075C19.1125 21.3125 19.45 21.3125 19.675 21.075L20.975 19.7875C21.25 19.5625 21.25 19.1625 21.025 18.9875Z" fill="#00295D"/>
</svg>
