<svg width="36" height="35" viewBox="0 0 36 35" fill="none" xmlns="http://www.w3.org/2000/svg">
<path d="M12.1668 17.5H23.8335V20.4166H12.1668V17.5ZM15.0835 29.1666H9.25016V5.83329H19.4585V13.125H26.7502V17.6458L29.6668 14.7291V11.6666L20.9168 2.91663H9.25016C8.47661 2.91663 7.73475 3.22392 7.18777 3.7709C6.64079 4.31788 6.3335 5.05974 6.3335 5.83329V29.1666C6.3335 29.9402 6.64079 30.682 7.18777 31.229C7.73475 31.776 8.47661 32.0833 9.25016 32.0833H15.0835V29.1666ZM12.1668 26.25H18.146L19.4585 24.9375V23.3333H12.1668V26.25ZM29.9585 18.9583C30.1043 18.9583 30.396 19.1041 30.5418 19.25L32.4377 21.1458C32.7293 21.4375 32.7293 22.0208 32.4377 22.3125L30.9793 23.7708L27.9168 20.7083L29.3752 19.25C29.521 19.1041 29.6668 18.9583 29.9585 18.9583ZM29.9585 24.6458L21.0627 33.5416H18.0002V30.4791L26.896 21.5833L29.9585 24.6458Z" fill="#00295D"/>
</svg>
