<svg width="44" height="43" viewBox="0 0 44 43" fill="none" xmlns="http://www.w3.org/2000/svg">
<path d="M21.9288 14.7321C20.6976 14.7321 19.4786 14.9746 18.3411 15.4457C17.2037 15.9169 16.1702 16.6074 15.2997 17.478C14.4291 18.3485 13.7385 19.382 13.2674 20.5195C12.7963 21.6569 12.5538 22.876 12.5538 24.1071C12.5538 25.3383 12.7963 26.5573 13.2674 27.6948C13.7385 28.8322 14.4291 29.8657 15.2997 30.7362C16.1702 31.6068 17.2037 32.2973 18.3411 32.7685C19.4786 33.2396 20.6976 33.4821 21.9288 33.4821C24.4152 33.4821 26.7998 32.4944 28.5579 30.7362C30.3161 28.9781 31.3038 26.5935 31.3038 24.1071C31.3038 21.6207 30.3161 19.2361 28.5579 17.478C26.7998 15.7198 24.4152 14.7321 21.9288 14.7321ZM15.2324 24.1071C15.2314 22.3726 15.9035 20.7054 17.1072 19.4565C18.3109 18.2076 19.9522 17.4745 21.6855 17.4115C23.4189 17.3485 25.1091 17.9605 26.4003 19.1187C27.6914 20.2769 28.4828 21.8909 28.6078 23.6209C28.3347 23.8431 28.0318 24.0257 27.7078 24.1634C26.7783 24.5651 25.2449 24.8035 22.5998 24.1419C19.648 23.4053 17.6578 23.8433 16.2676 24.7058C15.9194 24.9227 15.6181 25.1598 15.3569 25.3968C15.2738 24.972 15.2321 24.54 15.2324 24.1071ZM15.902 10.7143C15.902 11.2471 15.6903 11.758 15.3136 12.1348C14.9368 12.5115 14.4259 12.7232 13.8931 12.7232C13.3603 12.7232 12.8493 12.5115 12.4725 12.1348C12.0958 11.758 11.8841 11.2471 11.8841 10.7143C11.8841 10.1814 12.0958 9.67047 12.4725 9.29372C12.8493 8.91698 13.3603 8.70532 13.8931 8.70532C14.4259 8.70532 14.9368 8.91698 15.3136 9.29372C15.6903 9.67047 15.902 10.1814 15.902 10.7143ZM23.2681 9.37497C22.9129 9.37497 22.5722 9.51607 22.321 9.76723C22.0699 10.0184 21.9288 10.3591 21.9288 10.7143C21.9288 11.0695 22.0699 11.4101 22.321 11.6613C22.5722 11.9124 22.9129 12.0535 23.2681 12.0535H29.9645C30.3197 12.0535 30.6603 11.9124 30.9115 11.6613C31.1627 11.4101 31.3038 11.0695 31.3038 10.7143C31.3038 10.3591 31.1627 10.0184 30.9115 9.76723C30.6603 9.51607 30.3197 9.37497 29.9645 9.37497H23.2681ZM10.5449 4.01782C8.94645 4.01782 7.41351 4.65279 6.28327 5.78303C5.15303 6.91327 4.51807 8.44621 4.51807 10.0446V32.8125C4.51807 34.4109 5.15303 35.9438 6.28327 37.074C7.41351 38.2043 8.94645 38.8393 10.5449 38.8393H33.3127C34.9111 38.8393 36.444 38.2043 37.5743 37.074C38.7045 35.9438 39.3395 34.4109 39.3395 32.8125V10.0446C39.3395 8.44621 38.7045 6.91327 37.5743 5.78303C36.444 4.65279 34.9111 4.01782 33.3127 4.01782H10.5449ZM7.19664 10.0446C7.19664 9.15661 7.5494 8.30498 8.17731 7.67706C8.80522 7.04915 9.65685 6.69639 10.5449 6.69639H33.3127C34.2007 6.69639 35.0523 7.04915 35.6803 7.67706C36.3082 8.30498 36.6609 9.15661 36.6609 10.0446V32.8125C36.6609 33.7005 36.3082 34.5521 35.6803 35.18C35.0523 35.8079 34.2007 36.1607 33.3127 36.1607H10.5449C9.65685 36.1607 8.80522 35.8079 8.17731 35.18C7.5494 34.5521 7.19664 33.7005 7.19664 32.8125V10.0446Z" fill="#00295D"/>
</svg>
