<svg width="35" height="35" viewBox="0 0 35 35" fill="none" xmlns="http://www.w3.org/2000/svg">
<path d="M4.375 17.5H17.5V19.6875H4.375V17.5ZM2.1875 12.0312H13.125V14.2188H2.1875V12.0312Z" fill="#00295D"/>
<path d="M32.7237 18.1628L29.4424 10.5066C29.3581 10.3099 29.2179 10.1422 29.0393 10.0244C28.8606 9.90658 28.6513 9.84377 28.4373 9.84375H25.156V7.65625C25.156 7.36617 25.0408 7.08797 24.8357 6.88285C24.6306 6.67773 24.3524 6.5625 24.0623 6.5625H6.56229V8.75H22.9685V22.4831C22.4705 22.7729 22.0345 23.1582 21.6858 23.617C21.337 24.0757 21.0823 24.5988 20.9363 25.1562H14.0632C13.797 24.1252 13.1639 23.2267 12.2826 22.629C11.4013 22.0314 10.3322 21.7757 9.27588 21.9099C8.21952 22.044 7.24836 22.5589 6.54443 23.3579C5.84051 24.1569 5.45215 25.1852 5.45215 26.25C5.45215 27.3148 5.84051 28.3431 6.54443 29.1421C7.24836 29.9411 8.21952 30.456 9.27588 30.5901C10.3322 30.7243 11.4013 30.4686 12.2826 29.871C13.1639 29.2733 13.797 28.3748 14.0632 27.3438H20.9363C21.1743 28.2824 21.7184 29.115 22.4827 29.7097C23.2469 30.3044 24.1877 30.6273 25.156 30.6273C26.1244 30.6273 27.0652 30.3044 27.8294 29.7097C28.5937 29.115 29.1378 28.2824 29.3757 27.3438H31.7185C32.0086 27.3438 32.2868 27.2285 32.4919 27.0234C32.6971 26.8183 32.8123 26.5401 32.8123 26.25V18.5938C32.8122 18.4456 32.7821 18.299 32.7237 18.1628ZM9.84354 28.4375C9.41089 28.4375 8.98796 28.3092 8.62823 28.0688C8.26849 27.8285 7.98812 27.4868 7.82255 27.0871C7.65698 26.6874 7.61366 26.2476 7.69807 25.8232C7.78247 25.3989 7.99081 25.0091 8.29674 24.7032C8.60267 24.3973 8.99244 24.1889 9.41678 24.1045C9.84111 24.0201 10.2809 24.0634 10.6807 24.229C11.0804 24.3946 11.422 24.675 11.6624 25.0347C11.9027 25.3944 12.031 25.8174 12.031 26.25C12.031 26.8302 11.8006 27.3866 11.3903 27.7968C10.9801 28.207 10.4237 28.4375 9.84354 28.4375ZM25.156 12.0312H27.7154L30.0604 17.5H25.156V12.0312ZM25.156 28.4375C24.7234 28.4375 24.3005 28.3092 23.9407 28.0688C23.581 27.8285 23.3006 27.4868 23.135 27.0871C22.9695 26.6874 22.9262 26.2476 23.0106 25.8232C23.095 25.3989 23.3033 25.0091 23.6092 24.7032C23.9152 24.3973 24.3049 24.1889 24.7293 24.1045C25.1536 24.0201 25.5934 24.0634 25.9932 24.229C26.3929 24.3946 26.7345 24.675 26.9749 25.0347C27.2152 25.3944 27.3435 25.8174 27.3435 26.25C27.3435 26.8302 27.1131 27.3866 26.7028 27.7968C26.2926 28.207 25.7362 28.4375 25.156 28.4375ZM30.6248 25.1562H29.3757C29.1348 24.2194 28.5898 23.3889 27.8261 22.7951C27.0625 22.2013 26.1234 21.8777 25.156 21.875V19.6875H30.6248V25.1562Z" fill="#00295D"/>
</svg>
