<svg width="27" height="27" viewBox="0 0 27 27" fill="none" xmlns="http://www.w3.org/2000/svg">
<g clip-path="url(#clip0_1_1872)">
<path d="M9.30745 10.1267C9.13962 10.1267 8.97866 10.1934 8.85999 10.3121C8.74131 10.4307 8.67464 10.5917 8.67464 10.7595V16.2945C8.67464 16.4624 8.74131 16.6233 8.85999 16.742C8.97866 16.8607 9.13962 16.9273 9.30745 16.9273C9.47529 16.9273 9.63624 16.8607 9.75492 16.742C9.87359 16.6233 9.94027 16.4624 9.94027 16.2945V14.6366C9.94027 14.5437 10.0508 14.4965 10.1175 14.5606L12.3585 16.6641C12.4191 16.721 12.4903 16.7654 12.5681 16.7948C12.6458 16.8241 12.7286 16.8379 12.8117 16.8353C12.8948 16.8326 12.9766 16.8137 13.0523 16.7795C13.1281 16.7452 13.1964 16.6964 13.2533 16.6358C13.3101 16.5752 13.3545 16.504 13.3839 16.4262C13.4133 16.3484 13.4271 16.2657 13.4244 16.1826C13.4218 16.0995 13.4028 16.0177 13.3686 15.942C13.3344 15.8662 13.2856 15.7979 13.225 15.741L11.718 14.3261C11.6531 14.2653 11.6885 14.1531 11.7754 14.132C12.2572 14.0141 12.6793 13.7241 12.962 13.3165C13.2447 12.909 13.3686 12.4121 13.3103 11.9196C13.252 11.427 13.0155 10.9728 12.6454 10.6425C12.2753 10.3123 11.7972 10.1288 11.3012 10.1267H9.30745ZM10.0457 12.9221C10.0178 12.9221 9.99094 12.9109 9.97116 12.8912C9.95138 12.8714 9.94027 12.8446 9.94027 12.8166V11.4978C9.94027 11.4396 9.98752 11.3923 10.0457 11.3923H11.3012C11.4038 11.3889 11.506 11.4062 11.6018 11.4431C11.6976 11.48 11.7849 11.5358 11.8587 11.6071C11.9325 11.6785 11.9912 11.764 12.0312 11.8585C12.0713 11.953 12.0919 12.0546 12.0919 12.1572C12.0919 12.2598 12.0713 12.3614 12.0312 12.4559C11.9912 12.5504 11.9325 12.6359 11.8587 12.7072C11.7849 12.7786 11.6976 12.8344 11.6018 12.8713C11.506 12.9082 11.4038 12.9255 11.3012 12.9221H10.0457ZM3.47461 10.8312C3.47461 10.6634 3.54128 10.5024 3.65996 10.3838C3.77863 10.2651 3.93959 10.1984 4.10742 10.1984H7.17277C7.3406 10.1984 7.50156 10.2651 7.62023 10.3838C7.73891 10.5024 7.80558 10.6634 7.80558 10.8312C7.80558 10.9991 7.73891 11.16 7.62023 11.2787C7.50156 11.3974 7.3406 11.4641 7.17277 11.4641H4.8457C4.81773 11.4641 4.7909 11.4752 4.77113 11.4949C4.75135 11.5147 4.74023 11.5415 4.74023 11.5695V12.9001C4.74023 12.9592 4.78748 13.0056 4.8457 13.0056H7.13142C7.29925 13.0056 7.46021 13.0723 7.57889 13.1909C7.69756 13.3096 7.76423 13.4706 7.76423 13.6384C7.76423 13.8062 7.69756 13.9672 7.57889 14.0859C7.46021 14.2045 7.29925 14.2712 7.13142 14.2712H4.8457C4.81773 14.2712 4.7909 14.2823 4.77113 14.3021C4.75135 14.3219 4.74023 14.3487 4.74023 14.3767V16.2557C4.74023 16.4235 4.67356 16.5845 4.55489 16.7032C4.43621 16.8218 4.27525 16.8885 4.10742 16.8885C3.93959 16.8885 3.77863 16.8218 3.65996 16.7032C3.54128 16.5845 3.47461 16.4235 3.47461 16.2557V10.8312ZM14.823 10.1984C14.6552 10.1984 14.4943 10.2651 14.3756 10.3838C14.2569 10.5024 14.1902 10.6634 14.1902 10.8312V16.2566C14.1902 16.6059 14.4729 16.8894 14.823 16.8894H17.8875C18.0554 16.8894 18.2163 16.8227 18.335 16.704C18.4537 16.5853 18.5204 16.4244 18.5204 16.2566C18.5204 16.0887 18.4537 15.9278 18.335 15.8091C18.2163 15.6904 18.0554 15.6237 17.8875 15.6237H15.5613C15.5474 15.6237 15.5336 15.621 15.5208 15.6156C15.5079 15.6103 15.4963 15.6024 15.4865 15.5926C15.4766 15.5827 15.4689 15.5709 15.4636 15.558C15.4584 15.5452 15.4557 15.5313 15.4559 15.5174V14.3775C15.4559 14.3193 15.5031 14.2721 15.5613 14.2721H17.8462C18.014 14.2721 18.175 14.2054 18.2937 14.0867C18.4123 13.968 18.479 13.8071 18.479 13.6392C18.479 13.4714 18.4123 13.3104 18.2937 13.1918C18.175 13.0731 18.014 13.0064 17.8462 13.0064H15.5613C15.5334 13.0064 15.5065 12.9953 15.4868 12.9755C15.467 12.9558 15.4559 12.9289 15.4559 12.901V11.5704C15.4559 11.5113 15.5031 11.4649 15.5613 11.4649H17.8875C18.0554 11.4649 18.2163 11.3982 18.335 11.2795C18.4537 11.1609 18.5204 10.9999 18.5204 10.8321C18.5204 10.6643 18.4537 10.5033 18.335 10.3846C18.2163 10.2659 18.0554 10.1993 17.8875 10.1993L14.823 10.1984ZM20.0366 10.1984C19.8687 10.1984 19.7078 10.2651 19.5891 10.3838C19.4704 10.5024 19.4038 10.6634 19.4038 10.8312V16.2566C19.4038 16.6059 19.6873 16.8894 20.0366 16.8894H23.1019C23.2698 16.8894 23.4307 16.8227 23.5494 16.704C23.6681 16.5853 23.7347 16.4244 23.7347 16.2566C23.7347 16.0887 23.6681 15.9278 23.5494 15.8091C23.4307 15.6904 23.2698 15.6237 23.1019 15.6237H20.7749C20.7609 15.6237 20.7472 15.621 20.7343 15.6156C20.7215 15.6103 20.7098 15.6024 20.7 15.5926C20.6902 15.5827 20.6824 15.5709 20.6772 15.558C20.6719 15.5452 20.6693 15.5313 20.6694 15.5174V14.3775C20.6694 14.3193 20.7166 14.2721 20.7749 14.2721H23.0606C23.2284 14.2721 23.3894 14.2054 23.508 14.0867C23.6267 13.968 23.6934 13.8071 23.6934 13.6392C23.6934 13.4714 23.6267 13.3104 23.508 13.1918C23.3894 13.0731 23.2284 13.0064 23.0606 13.0064H20.7749C20.7469 13.0064 20.7201 12.9953 20.7003 12.9755C20.6805 12.9558 20.6694 12.9289 20.6694 12.901V11.5704C20.6694 11.5113 20.7166 11.4649 20.7749 11.4649H23.1019C23.2698 11.4649 23.4307 11.3982 23.5494 11.2795C23.6681 11.1609 23.7347 10.9999 23.7347 10.8321C23.7347 10.6643 23.6681 10.5033 23.5494 10.3846C23.4307 10.2659 23.2698 10.1993 23.1019 10.1993L20.0366 10.1984Z" fill="#00295D"/>
<path d="M5.0625 0.84375C4.50849 0.84375 3.9599 0.952871 3.44805 1.16488C2.93621 1.3769 2.47114 1.68765 2.07939 2.07939C1.28822 2.87056 0.84375 3.94362 0.84375 5.0625V21.9375C0.84375 23.0564 1.28822 24.1294 2.07939 24.9206C2.47114 25.3124 2.93621 25.6231 3.44805 25.8351C3.9599 26.0471 4.50849 26.1562 5.0625 26.1562H21.9375C23.0564 26.1562 24.1294 25.7118 24.9206 24.9206C25.7118 24.1294 26.1562 23.0564 26.1562 21.9375V5.0625C26.1562 4.50849 26.0471 3.9599 25.8351 3.44805C25.6231 2.93621 25.3124 2.47114 24.9206 2.07939C24.5289 1.68765 24.0638 1.3769 23.5519 1.16488C23.0401 0.952871 22.4915 0.84375 21.9375 0.84375H5.0625ZM2.53125 5.0625C2.53125 4.39117 2.79793 3.74734 3.27264 3.27264C3.74734 2.79793 4.39117 2.53125 5.0625 2.53125H21.9375C22.6088 2.53125 23.2527 2.79793 23.7274 3.27264C24.2021 3.74734 24.4688 4.39117 24.4688 5.0625V21.9375C24.4688 22.6088 24.2021 23.2527 23.7274 23.7274C23.2527 24.2021 22.6088 24.4688 21.9375 24.4688H5.0625C4.39117 24.4688 3.74734 24.2021 3.27264 23.7274C2.79793 23.2527 2.53125 22.6088 2.53125 21.9375V5.0625Z" fill="#00295D"/>
</g>
<defs>
<clipPath id="clip0_1_1872">
<rect width="27" height="27" fill="white"/>
</clipPath>
</defs>
</svg>
