<svg width="25" height="30" viewBox="0 0 25 30" fill="none" xmlns="http://www.w3.org/2000/svg">
<path d="M22 4C22.4167 4 22.8073 4.07812 23.1719 4.23438C23.5365 4.39062 23.8542 4.60417 24.125 4.875C24.3958 5.14583 24.6094 5.46354 24.7656 5.82812C24.9219 6.19271 25 6.58333 25 7V21C25 22.2396 24.7656 23.4062 24.2969 24.5C23.8281 25.5938 23.1823 26.5469 22.3594 27.3594C21.5365 28.1719 20.5833 28.8125 19.5 29.2812C18.4167 29.75 17.25 29.9896 16 30C14.5 30 13.1042 29.7135 11.8125 29.1406C10.5208 28.5677 9.34375 27.7552 8.28125 26.7031L0.90625 19.3281C0.614583 19.0365 0.390625 18.6979 0.234375 18.3125C0.078125 17.9271 0 17.5312 0 17.125C0 16.6875 0.0833333 16.2812 0.25 15.9062C0.416667 15.5312 0.640625 15.1979 0.921875 14.9062C1.20312 14.6146 1.53125 14.3958 1.90625 14.25C2.28125 14.1042 2.6875 14.0208 3.125 14C3.54167 14 3.9375 14.0781 4.3125 14.2344C4.6875 14.3906 5.02604 14.6198 5.32812 14.9219L7 16.5781V5C7 4.58333 7.07812 4.19271 7.23438 3.82812C7.39062 3.46354 7.60417 3.14583 7.875 2.875C8.14583 2.60417 8.46354 2.39062 8.82812 2.23438C9.19271 2.07812 9.58333 2 10 2C10.3854 2 10.7552 2.07292 11.1094 2.21875C11.1927 1.89583 11.3281 1.59896 11.5156 1.32812C11.7031 1.05729 11.9219 0.822917 12.1719 0.625C12.4219 0.427083 12.7083 0.276042 13.0312 0.171875C13.3542 0.0677083 13.6771 0.0104167 14 0C14.3333 0 14.6562 0.0520833 14.9688 0.15625C15.2812 0.260417 15.5625 0.416667 15.8125 0.625C16.0625 0.833333 16.2865 1.06771 16.4844 1.32812C16.6823 1.58854 16.8177 1.88542 16.8906 2.21875C17.2448 2.07292 17.6146 2 18 2C18.3333 2 18.6562 2.05208 18.9688 2.15625C19.2812 2.26042 19.5625 2.41667 19.8125 2.625C20.0625 2.83333 20.2865 3.06771 20.4844 3.32812C20.6823 3.58854 20.8177 3.88542 20.8906 4.21875C21.2448 4.07292 21.6146 4 22 4ZM23 7C23 6.72917 22.901 6.49479 22.7031 6.29688C22.5052 6.09896 22.2708 6 22 6C21.7292 6 21.4948 6.09896 21.2969 6.29688C21.099 6.49479 21 6.72917 21 7V14C21 14.2708 20.901 14.5052 20.7031 14.7031C20.5052 14.901 20.2708 15 20 15C19.7292 15 19.4948 14.901 19.2969 14.7031C19.099 14.5052 19 14.2708 19 14V5C19 4.72917 18.901 4.49479 18.7031 4.29688C18.5052 4.09896 18.2708 4 18 4C17.7292 4 17.4948 4.09896 17.2969 4.29688C17.099 4.49479 17 4.72917 17 5V13C17 13.2708 16.901 13.5052 16.7031 13.7031C16.5052 13.901 16.2708 14 16 14C15.7292 14 15.4948 13.901 15.2969 13.7031C15.099 13.5052 15 13.2708 15 13V3C15 2.72917 14.901 2.49479 14.7031 2.29688C14.5052 2.09896 14.2708 2 14 2C13.7292 2 13.4948 2.09896 13.2969 2.29688C13.099 2.49479 13 2.72917 13 3V13C13 13.2708 12.901 13.5052 12.7031 13.7031C12.5052 13.901 12.2708 14 12 14C11.7292 14 11.4948 13.901 11.2969 13.7031C11.099 13.5052 11 13.2708 11 13V5C11 4.72917 10.901 4.49479 10.7031 4.29688C10.5052 4.09896 10.2708 4 10 4C9.72917 4 9.49479 4.09896 9.29688 4.29688C9.09896 4.49479 9 4.72917 9 5V17.2969C9 17.5365 8.95833 17.7552 8.875 17.9531C8.79167 18.151 8.67188 18.3333 8.51562 18.5C8.35938 18.6667 8.17708 18.7865 7.96875 18.8594C7.76042 18.9323 7.54167 18.9792 7.3125 19C7.08333 19 6.86458 18.9583 6.65625 18.875C6.44792 18.7917 6.25521 18.6667 6.07812 18.5L3.90625 16.3281C3.6875 16.1094 3.42708 16 3.125 16C2.82292 16 2.5625 16.1094 2.34375 16.3281C2.125 16.5469 2.01042 16.8125 2 17.125C2 17.4271 2.10938 17.6875 2.32812 17.9062L9.70312 25.2969C10.5781 26.1719 11.5365 26.8385 12.5781 27.2969C13.6198 27.7552 14.7604 27.9896 16 28C16.9688 28 17.875 27.8177 18.7188 27.4531C19.5625 27.0885 20.3021 26.5885 20.9375 25.9531C21.5729 25.3177 22.0729 24.5781 22.4375 23.7344C22.8021 22.8906 22.9896 21.9792 23 21V7Z" fill="#00295D"/>
</svg>
