<svg width="30" height="30" viewBox="0 0 30 30" fill="none" xmlns="http://www.w3.org/2000/svg">
<path d="M15 10.3125C14.1382 10.3125 13.2848 10.4822 12.4886 10.812C11.6924 11.1418 10.969 11.6252 10.3596 12.2346C9.75023 12.844 9.26684 13.5674 8.93704 14.3636C8.60724 15.1598 8.4375 16.0132 8.4375 16.875C8.4375 17.7368 8.60724 18.5902 8.93704 19.3864C9.26684 20.1826 9.75023 20.906 10.3596 21.5154C10.969 22.1248 11.6924 22.6082 12.4886 22.938C13.2848 23.2678 14.1382 23.4375 15 23.4375C16.7405 23.4375 18.4097 22.7461 19.6404 21.5154C20.8711 20.2847 21.5625 18.6155 21.5625 16.875C21.5625 15.1345 20.8711 13.4653 19.6404 12.2346C18.4097 11.0039 16.7405 10.3125 15 10.3125ZM10.3125 16.875C10.3118 15.6608 10.7823 14.4938 11.6249 13.6196C12.4675 12.7454 13.6164 12.2322 14.8297 12.1881C16.0431 12.144 17.2262 12.5724 18.13 13.3831C19.0338 14.1939 19.5878 15.3237 19.6753 16.5347C19.4842 16.6902 19.2721 16.818 19.0453 16.9144C18.3947 17.1956 17.3212 17.3625 15.4697 16.8994C13.4034 16.3837 12.0103 16.6903 11.0372 17.2941C10.7934 17.4459 10.5825 17.6119 10.3997 17.7778C10.3415 17.4804 10.3123 17.178 10.3125 16.875ZM10.7812 7.5C10.7812 7.87296 10.6331 8.23065 10.3694 8.49437C10.1056 8.75809 9.74796 8.90625 9.375 8.90625C9.00204 8.90625 8.64435 8.75809 8.38063 8.49437C8.11691 8.23065 7.96875 7.87296 7.96875 7.5C7.96875 7.12704 8.11691 6.76935 8.38063 6.50563C8.64435 6.24191 9.00204 6.09375 9.375 6.09375C9.74796 6.09375 10.1056 6.24191 10.3694 6.50563C10.6331 6.76935 10.7812 7.12704 10.7812 7.5ZM15.9375 6.5625C15.6889 6.5625 15.4504 6.66127 15.2746 6.83709C15.0988 7.0129 15 7.25136 15 7.5C15 7.74864 15.0988 7.9871 15.2746 8.16291C15.4504 8.33873 15.6889 8.4375 15.9375 8.4375H20.625C20.8736 8.4375 21.1121 8.33873 21.2879 8.16291C21.4637 7.9871 21.5625 7.74864 21.5625 7.5C21.5625 7.25136 21.4637 7.0129 21.2879 6.83709C21.1121 6.66127 20.8736 6.5625 20.625 6.5625H15.9375ZM7.03125 2.8125C5.91237 2.8125 4.83931 3.25697 4.04814 4.04814C3.25697 4.83931 2.8125 5.91237 2.8125 7.03125V22.9688C2.8125 24.0876 3.25697 25.1607 4.04814 25.9519C4.83931 26.743 5.91237 27.1875 7.03125 27.1875H22.9688C24.0876 27.1875 25.1607 26.743 25.9519 25.9519C26.743 25.1607 27.1875 24.0876 27.1875 22.9688V7.03125C27.1875 5.91237 26.743 4.83931 25.9519 4.04814C25.1607 3.25697 24.0876 2.8125 22.9688 2.8125H7.03125ZM4.6875 7.03125C4.6875 6.40965 4.93443 5.81351 5.37397 5.37397C5.81351 4.93443 6.40965 4.6875 7.03125 4.6875H22.9688C23.5904 4.6875 24.1865 4.93443 24.626 5.37397C25.0656 5.81351 25.3125 6.40965 25.3125 7.03125V22.9688C25.3125 23.5904 25.0656 24.1865 24.626 24.626C24.1865 25.0656 23.5904 25.3125 22.9688 25.3125H7.03125C6.40965 25.3125 5.81351 25.0656 5.37397 24.626C4.93443 24.1865 4.6875 23.5904 4.6875 22.9688V7.03125Z" fill="#00295D"/>
</svg>
