<svg width="36" height="35" viewBox="0 0 36 35" fill="none" xmlns="http://www.w3.org/2000/svg">
<path d="M15.0835 3.28125C12.0268 3.28125 9.49956 5.70208 9.49956 8.75C9.49956 11.7979 12.0268 14.2187 15.0835 14.2187C18.1402 14.2187 20.6675 11.7979 20.6675 8.75C20.6675 5.70208 18.1402 3.28125 15.0835 3.28125ZM11.6871 8.75C11.6871 6.965 13.1804 5.46875 15.0835 5.46875C16.9866 5.46875 18.48 6.965 18.48 8.75C18.48 10.535 16.9866 12.0312 15.0835 12.0312C13.1804 12.0312 11.6871 10.535 11.6871 8.75ZM10.8354 17.2958C10.9287 17.2696 11.13 17.2798 11.3954 17.4504C12.1421 17.9346 13.4371 18.5733 15.0835 18.5733C16.73 18.5733 18.025 17.9346 18.7731 17.4504C19.0356 17.2798 19.2383 17.2696 19.3316 17.2944C19.5407 17.3527 19.7487 17.4149 19.9558 17.481L21.3923 17.9404C21.6657 18.0191 21.9589 17.9881 22.2099 17.8541C22.4608 17.7201 22.6497 17.4936 22.7364 17.2227C22.8231 16.9517 22.8008 16.6577 22.6743 16.4029C22.5478 16.1481 22.327 15.9526 22.0587 15.8579L20.6237 15.3971C20.3875 15.3222 20.1502 15.2517 19.9121 15.1856C19.0196 14.9406 18.1723 15.2337 17.5846 15.6144C17.045 15.9644 16.1641 16.3858 15.0835 16.3858C14.0043 16.3858 13.1221 15.9629 12.5825 15.6129C11.9948 15.2337 11.1475 14.9406 10.255 15.1856C10.0168 15.2517 9.77956 15.3222 9.54331 15.3971L8.1083 15.8579C7.29314 16.1129 6.5486 16.5544 5.93373 17.1472C5.31887 17.7401 4.85058 18.468 4.56601 19.2733C4.45664 19.5942 4.40997 19.9033 4.38372 20.1542L3.81643 25.5106C3.5831 27.2271 4.53539 28.9931 6.41372 29.4292C8.16226 29.8346 10.9739 30.2604 15.0835 30.2604C15.3736 30.2604 15.6518 30.1452 15.8569 29.9401C16.062 29.7349 16.1773 29.4567 16.1773 29.1667C16.1773 28.8766 16.062 28.5984 15.8569 28.3933C15.6518 28.1881 15.3736 28.0729 15.0835 28.0729C11.1256 28.0729 8.48018 27.6646 6.90955 27.3C6.28685 27.1542 5.87705 26.5665 5.98497 25.7979L5.98789 25.779L6.5581 20.3831C6.57851 20.2023 6.60185 20.0798 6.63393 19.9879C6.80724 19.5038 7.09095 19.0667 7.46254 18.7113C7.83414 18.3559 8.28342 18.092 8.77476 17.9404L10.2112 17.481C10.4183 17.4149 10.6264 17.3542 10.8354 17.2958ZM27.1148 22.9687C27.1148 22.6787 26.9995 22.4005 26.7944 22.1954C26.5893 21.9902 26.3111 21.875 26.021 21.875C25.7309 21.875 25.4527 21.9902 25.2476 22.1954C25.0425 22.4005 24.9273 22.6787 24.9273 22.9687V25.9729L26.5241 27.5698C26.6243 27.6773 26.745 27.7634 26.8792 27.8232C27.0133 27.883 27.1582 27.9151 27.305 27.9177C27.4519 27.9203 27.5978 27.8933 27.734 27.8383C27.8702 27.7833 27.9939 27.7014 28.0977 27.5976C28.2016 27.4937 28.2835 27.37 28.3385 27.2338C28.3935 27.0976 28.4205 26.9517 28.4179 26.8049C28.4153 26.658 28.3832 26.5132 28.3234 26.379C28.2636 26.2448 28.1774 26.1241 28.07 26.024L27.1148 25.0673V22.9687Z" fill="#00295D"/>
<path d="M26.0207 19.3229C25.2067 19.3229 24.4008 19.4832 23.6488 19.7947C22.8969 20.1061 22.2136 20.5627 21.6381 21.1382C21.0626 21.7137 20.606 22.397 20.2945 23.149C19.9831 23.9009 19.8228 24.7069 19.8228 25.5208C19.8228 26.3347 19.9831 27.1407 20.2945 27.8926C20.606 28.6446 21.0626 29.3279 21.6381 29.9034C22.2136 30.4789 22.8969 30.9354 23.6488 31.2469C24.4008 31.5584 25.2067 31.7187 26.0207 31.7187C27.6645 31.7187 29.2409 31.0657 30.4033 29.9034C31.5656 28.741 32.2186 27.1646 32.2186 25.5208C32.2186 23.877 31.5656 22.3005 30.4033 21.1382C29.2409 19.9759 27.6645 19.3229 26.0207 19.3229ZM22.0103 25.5208C22.0103 24.4572 22.4328 23.4371 23.1849 22.685C23.937 21.9329 24.957 21.5104 26.0207 21.5104C27.0843 21.5104 28.1044 21.9329 28.8565 22.685C29.6086 23.4371 30.0311 24.4572 30.0311 25.5208C30.0311 26.5844 29.6086 27.6045 28.8565 28.3566C28.1044 29.1087 27.0843 29.5312 26.0207 29.5312C24.957 29.5312 23.937 29.1087 23.1849 28.3566C22.4328 27.6045 22.0103 26.5844 22.0103 25.5208Z" fill="#00295D"/>
</svg>
