<svg width="35" height="35" viewBox="0 0 35 35" fill="none" xmlns="http://www.w3.org/2000/svg">
<path d="M32.0835 24.7917H2.91683C2.53006 24.7917 2.15912 24.9454 1.88563 25.2188C1.61214 25.4923 1.4585 25.8633 1.4585 26.25C1.4585 26.6368 1.61214 27.0077 1.88563 27.2812C2.15912 27.5547 2.53006 27.7084 2.91683 27.7084H32.0835C32.4703 27.7084 32.8412 27.5547 33.1147 27.2812C33.3882 27.0077 33.5418 26.6368 33.5418 26.25C33.5418 25.8633 33.3882 25.4923 33.1147 25.2188C32.8412 24.9454 32.4703 24.7917 32.0835 24.7917ZM32.0835 30.625H2.91683C2.53006 30.625 2.15912 30.7787 1.88563 31.0522C1.61214 31.3257 1.4585 31.6966 1.4585 32.0834C1.4585 32.4701 1.61214 32.8411 1.88563 33.1146C2.15912 33.3881 2.53006 33.5417 2.91683 33.5417H32.0835C32.4703 33.5417 32.8412 33.3881 33.1147 33.1146C33.3882 32.8411 33.5418 32.4701 33.5418 32.0834C33.5418 31.6966 33.3882 31.3257 33.1147 31.0522C32.8412 30.7787 32.4703 30.625 32.0835 30.625ZM8.75016 10.2084C8.46173 10.2084 8.17978 10.2939 7.93996 10.4541C7.70013 10.6144 7.51322 10.8422 7.40284 11.1086C7.29246 11.3751 7.26358 11.6683 7.31985 11.9512C7.37612 12.2341 7.51501 12.494 7.71897 12.6979C7.92292 12.9019 8.18277 13.0407 8.46566 13.097C8.74854 13.1533 9.04177 13.1244 9.30824 13.014C9.57472 12.9037 9.80248 12.7167 9.96272 12.4769C10.123 12.2371 10.2085 11.9551 10.2085 11.6667C10.2085 11.2799 10.0548 10.909 9.78136 10.6355C9.50787 10.362 9.13694 10.2084 8.75016 10.2084ZM29.1668 1.45837H5.8335C4.67317 1.45837 3.56038 1.91931 2.7399 2.73978C1.91943 3.56025 1.4585 4.67305 1.4585 5.83337V17.5C1.4585 18.6604 1.91943 19.7732 2.7399 20.5936C3.56038 21.4141 4.67317 21.875 5.8335 21.875H29.1668C30.3272 21.875 31.4399 21.4141 32.2604 20.5936C33.0809 19.7732 33.5418 18.6604 33.5418 17.5V5.83337C33.5418 4.67305 33.0809 3.56025 32.2604 2.73978C31.4399 1.91931 30.3272 1.45837 29.1668 1.45837ZM30.6252 17.5C30.6252 17.8868 30.4715 18.2577 30.198 18.5312C29.9245 18.8047 29.5536 18.9584 29.1668 18.9584H5.8335C5.44672 18.9584 5.07579 18.8047 4.8023 18.5312C4.52881 18.2577 4.37516 17.8868 4.37516 17.5V5.83337C4.37516 5.4466 4.52881 5.07567 4.8023 4.80218C5.07579 4.52869 5.44672 4.37504 5.8335 4.37504H29.1668C29.5536 4.37504 29.9245 4.52869 30.198 4.80218C30.4715 5.07567 30.6252 5.4466 30.6252 5.83337V17.5ZM17.5002 7.29171C16.6349 7.29171 15.789 7.5483 15.0695 8.02903C14.3501 8.50976 13.7893 9.19304 13.4582 9.99247C13.1271 10.7919 13.0404 11.6716 13.2092 12.5202C13.378 13.3689 13.7947 14.1484 14.4066 14.7603C15.0184 15.3722 15.798 15.7888 16.6466 15.9576C17.4953 16.1265 18.375 16.0398 19.1744 15.7087C19.9738 15.3775 20.6571 14.8168 21.1378 14.0973C21.6186 13.3779 21.8752 12.532 21.8752 11.6667C21.8752 10.5064 21.4142 9.39359 20.5938 8.57311C19.7733 7.75264 18.6605 7.29171 17.5002 7.29171ZM17.5002 13.125C17.2117 13.125 16.9298 13.0395 16.69 12.8793C16.4501 12.719 16.2632 12.4913 16.1528 12.2248C16.0425 11.9583 16.0136 11.6651 16.0698 11.3822C16.1261 11.0993 16.265 10.8395 16.469 10.6355C16.6729 10.4316 16.9328 10.2927 17.2157 10.2364C17.4985 10.1801 17.7918 10.209 18.0582 10.3194C18.3247 10.4298 18.5525 10.6167 18.7127 10.8565C18.873 11.0963 18.9585 11.3783 18.9585 11.6667C18.9585 12.0535 18.8048 12.4244 18.5314 12.6979C18.2579 12.9714 17.8869 13.125 17.5002 13.125ZM26.2502 10.2084C25.9617 10.2084 25.6798 10.2939 25.44 10.4541C25.2001 10.6144 25.0132 10.8422 24.9028 11.1086C24.7925 11.3751 24.7636 11.6683 24.8198 11.9512C24.8761 12.2341 25.015 12.494 25.219 12.6979C25.4229 12.9019 25.6828 13.0407 25.9657 13.097C26.2485 13.1533 26.5418 13.1244 26.8082 13.014C27.0747 12.9037 27.3025 12.7167 27.4627 12.4769C27.623 12.2371 27.7085 11.9551 27.7085 11.6667C27.7085 11.2799 27.5548 10.909 27.2814 10.6355C27.0079 10.362 26.6369 10.2084 26.2502 10.2084Z" fill="#00295D"/>
</svg>
