<svg width="35" height="35" viewBox="0 0 35 35" fill="none" xmlns="http://www.w3.org/2000/svg">
<path d="M34.2707 24.7916L26.979 32.0833L21.8748 26.9791L24.0623 24.7916L26.979 27.7083L32.0832 22.6041L34.2707 24.7916ZM19.104 29.0208C18.5207 29.1666 18.0832 29.1666 17.4998 29.1666C11.0832 29.1666 5.83317 23.9166 5.83317 17.5C5.83317 11.0833 11.0832 5.83329 17.4998 5.83329C23.9165 5.83329 29.1665 11.0833 29.1665 17.5C29.1665 18.0833 29.1665 18.5208 29.0207 19.1041C30.0415 19.25 30.9165 19.5416 31.7915 19.9791C31.9373 19.1041 32.0832 18.375 32.0832 17.5C32.0832 9.47913 25.5207 2.91663 17.4998 2.91663C9.479 2.91663 2.9165 9.47913 2.9165 17.5C2.9165 25.5208 9.479 32.0833 17.4998 32.0833C18.3748 32.0833 19.2498 31.9375 19.979 31.7916C19.5415 31.0625 19.2498 30.0416 19.104 29.0208ZM22.7498 20.5625L18.229 17.9375V10.2083H16.0415V18.9583L21.1457 22.0208C21.5832 21.4375 22.1665 21 22.7498 20.5625Z" fill="black"/>
</svg>
